<mxfile host="65bd71144e">
    <diagram id="HIP3nbAZw_EuaXWnEj3U" name="Page-1">
        <mxGraphModel dx="1655" dy="865" grid="1" gridSize="10" guides="1" tooltips="1" connect="1" arrows="1" fold="1" page="1" pageScale="1" pageWidth="850" pageHeight="1100" math="0" shadow="0">
            <root>
                <mxCell id="0"/>
                <mxCell id="1" parent="0"/>
                <mxCell id="7" value="http://ics2o.mths.ca" style="swimlane;whiteSpace=wrap;html=1;" parent="1" vertex="1">
                    <mxGeometry x="40" y="40" width="760" height="480" as="geometry"/>
                </mxCell>
                <mxCell id="8" value="&lt;font style=&quot;font-size: 20px;&quot;&gt;Multiply Numbers, in JS&lt;/font&gt;" style="text;html=1;align=center;verticalAlign=middle;resizable=0;points=[];autosize=1;strokeColor=none;fillColor=none;" vertex="1" parent="7">
                    <mxGeometry x="260" y="30" width="230" height="40" as="geometry"/>
                </mxCell>
                <mxCell id="9" value="&lt;font style=&quot;font-size: 20px;&quot;&gt;Please enter a number:&amp;nbsp;&lt;/font&gt;" style="text;html=1;align=center;verticalAlign=middle;resizable=0;points=[];autosize=1;strokeColor=none;fillColor=none;" vertex="1" parent="7">
                    <mxGeometry x="20" y="90" width="240" height="40" as="geometry"/>
                </mxCell>
                <mxCell id="10" value="number here..." style="rounded=1;whiteSpace=wrap;html=1;align=left;" vertex="1" parent="7">
                    <mxGeometry x="30" y="130" width="220" height="60" as="geometry"/>
                </mxCell>
                <mxCell id="11" value="CALCULATE" style="rounded=1;whiteSpace=wrap;html=1;" vertex="1" parent="7">
                    <mxGeometry x="30" y="200" width="120" height="60" as="geometry"/>
                </mxCell>
                <mxCell id="12" value="" style="shape=image;verticalLabelPosition=bottom;labelBackgroundColor=default;verticalAlign=top;aspect=fixed;imageAspect=0;image=data:image/png,iVBORw0KGgoAAAANSUhEUgAAAY4AAADmCAIAAABNtvWoAAAAAXNSR0IArs4c6QAAIABJREFUeJzsfXmUFdW19977nBru0DPd0MyzICKzTCIag7NifBj1mTjEGDW+98UpMYNfYoLRBI0mcQgOMYlPE32OcUIlBsQA4oAiiIwyNFNDz32nqjpn7++PgqbBSHh50Xxk3d+q1Wv1rapTp3ad86s9/M69KCJQRBFFFPH/N+if3YEiiiiiiL+NIlUVUUQRhwCKVFVEEUUcAihSVRFFFHEIoEhVRRRRxCGAIlUVUUQRhwCKVFVEEUUcAjgoqhIRETHGBEFQKBREhJk7/saIj2TmdevWFQqFeNfHG/l07uJv9Pyzv6i1tqmp6a233trPFMzMzG1tbYVCwVr7j+refk+hiCL+9XCwVBVPsG9+85svvPBCzFbGGGNMS0tLoVAwxsSHbdu27bTTTnviiSfiKbpfI5/9dLLW7teNTxsxT+Vyue985ztf+MIXXnzxxdbW1o4+MHNTU9Opp556xx13tLe3/6O6V+SpIv71IQeB2J+69957E4lEZWXl888/H/NUY2PjF77whQcffDAmryiK7rjjDt/3q6urly5dGoahMaajkWw229raGn9irQ3DMJ/Px41HURSGYaFQyOVy2Ww2k8m0t7e3tbW1t7cHQRBFURAE+Xw+3hUEQfxvx2FtbW25XK6zixdzaxRFO3fu3LRpUxiG++2Ne5vL5cIw7PBuOhA33uH4xNSTz+eNMR9vZz8wcz6ff+yxx1zXJSLXdW+99dbYPtbatra2a665xvO8RCJx55135nK5jqtba7PZbBAEHReNzdJx7/Htf/x+mTm2Q4e1mTkMw1wuFx8fG+1gHnQRRfx/C32QjNbe3v7II48EQUBE8Vxi5uuuu+7FF19csmTJwIEDJ02aFIbhww8/bIxpb29ft27dwoULp0+f3r17d6UUADz00ENPPfXUH/7wh/Ly8nw+f9NNNzU2Nt5zzz0LFizYsWNHa2vrpk2bPvzwwzAMm5ubGxoampqaUqnUT3/606qqqjfeeGP9+vV1dXWtra1nn312KpV66623Vq9evWPHjvb29pKSkuOPP/62224rLy9XSiFiPFfffPPNa665ZtOmTffee+8pp5wSc0fcc2PMiy+++Mtf/vKYY4659tprU6lU3EljTBiG119//eOPP37eeefdeOONqVQqn89/6UtfKi8v/+pXvzp27FjHcYiI6BMd0vjuwjCMG3zuuecuueQSpVQ2m73++usffPDBKIoA4Pbbbz/zzDNra2uttdbalStXXnnllWPGjLnhhhsqKyu3bt26cOHCXC63a9euDz/8cP369UqpxsbGXbt2WWvHjx//yCOPlJSUIGIYhldddVV5efnNN99srQWApqamZ5555tVXX125cmVDQ0Mymbz22muvuOIKAIhvs4giDj0cDJ9Za19++eWysjJErKys3LJlizFm/vz5Xbp0UUqVlZU9++yzQRD86U9/cl0XEWtqap5++umePXueeeaZmUwmbuTSSy8tLy9/+umnwzBctWpVTU1NaWnp6tWrhw4d6nme4ziO47iuq7XWWiullFJE5Hme67qO43R8qLXu+DeZTPbr1y+ZTLque+GFF2YymdjXyOVyjzzySE1NTXzKqFGjGhsb413W2rq6utmzZ3ft2tVxnK5du65cubLDtQmCYNasWclkUinl+/61116bz+dbW1vHjh3ruq7neUcdddQrr7xyACelUCjce++9HYxARJMnT25oaFixYsXpp58e02W868QTT2xubo5drccee2z48OGO46TT6SVLlgRB8MADD+x37x0WUEolEomf/OQnQRDEMfgxxxwzePDgFStWLF269MILL+zSpYvnebEB4+Orq6s3bNjQ2cktoohDCwdLVd/61rdc13Vdd8aMGVEUtbW1jR492nEcROzevfumTZsymcx5550XT4xvfOMbTzzxREVFRXV19Zo1a2KvYdSoUY7jXHbZZZlM5tlnn3VdN5FIvPDCCzfddFPv3r179uzRpUsXx3F837/iiiueeOKJRYsWxV6D4zhVVVVDhgy5/PLLH3744fHjxyeTyWQyOWHChMWLF993332+7yulTj755Pb2dmNMW1vbXXfdVVJSorUmIkQcPHhwfX19HLQ2NzeffPLJiUQido5KS0tfe+01a60xZvv27d/97ndTqZTv+zU1NZ7n9enTZ8OGDc3Nzf379y8rK+vXr19paWlZWdnNN98cX6uzlWJnbcuWLT169EDEmI8Qsby8/KyzzqqoqPA8r7M79q1vfSuTyWQymVtuuSWZTDqOE1vvhRdeCILg7bffHjx4cPfu3fv06ROT1IQJE+66666FCxfOnDnTcZyamppMJhNF0Y4dOwYPHpxOp7/97W8fccQR8X0lEokpU6bccsstM2fOnDVr1k9+8pOPd7iIIg4hHBRV5fP56dOnK6VKS0vnzp1bKBTuvvvu2PVAxEmTJjU2Nm7fvr1r165EVFVVtXr16tmzZyeTyV69em3evNlaGwRBjx49tNbnnHNOQ0PDL37xC611KpVas2ZNU1PTRx999MEHH1x22WWO41RXV2/ZsqVQKBQKhaOPPtpxnOHDhz/88MOPP/74smXLstnsxo0b77777mOOOSadTg8YMKCsrExrXVZWFncsl8vdeuut5eXlrutWVFSce+65PXv2LC0tnTdvXhAEYRi+8847ZWVlsTMY+3EPP/xwFEWFQuGee+6JKezLX/7y66+/3qdPn3Q6PWvWrNbW1okTJw4bNmzdunWvvfbayJEju3Tpcuedd4Zh2NlK8W3+8Y9/9H2/g6qIKHYDYx8n7mq8d+bMmfl8fuXKld26dYs9RN/3iej73/9+JpPJ5/MbN25cs2bN008/Hee25syZk8vl2trarrvuOq31yJEj42zahg0bamtrk8nkl7/85d69eyNinCMbNWrUwoUL29vb40RbFEUfz8oVUcShgoOqAOZyuU2bNolIRUXFwIED33///VtuuSUIgrh61bt3b2PMd7/73V27dgHA2LFjq6urP/jgA2NMMpkUkaamprlz58YhWL9+/aIoevLJJxHxqKOO6tevX3l5ee/evWM20VpffPHF3bp1c103doJEZM2aNV//+te/9rWvXXzxxStXruzevfu5557b2tqay+U2bNiQyWQA4Pzzzx8/fjwRLV68+I477igUCkOHDp0zZ86vfvWrb37zm9bamTNnxhKB2bNnZzIZz/Nmz57dt29fEXn99dfr6uqy2Wxc3AQArfV//Md/1NfXK6UqKysBIJFItLS0VFdXT5gw4f777+/evfuvf/3rbDa7n6Gy2exdd90VZ/SmTJmSSCTi1J61logqKipuuOGGE088MY7LRowYISILFixoampyHOd73/ve+eefr7V+6aWX6urqmLlnz549e/Z86aWXmLm2tnb48OG+71trFy9eDAD9+vXL5XI7d+585pln2traiGj8+PGXXXbZmDFjqqqqEonEmjVrbrzxxmw263leHA92EGgRRRx6OBg+W7duXU1NDRENHTp04cKFY8aM6cjFIOK0adNmzZpVWlpKRL7vx+X5E044gYhqa2svuOCC0aNHV1RUxNmWJ554Yu3atd26dfN9/9Zbb43bj6LonnvuSafTffr0qauriz+cP39+WVmZ53mlpaWVlZXV1dUnn3zyypUrwzD86KOPevTo4Xle3759jz/++ClTpvTo0eP+++9vbm6eOnWq53lDhw5ds2ZNFEXGmLq6upqamvLy8gULFixZsqSyslIpdeSRR86ePXvkyJGxczd69OgXXnhh8ODB8U1prZPJZI8ePS677LKdO3c2NzcPHz68T58+cb7/oYce6t69+6BBg+rr6ztbyVo7d+7c8vJyAPA8b86cObNmzerXr1+XLl0OO+ywCy644K233mpqaho/fnzsQy1cuHDz5s0jRoxAxNLS0jvvvPOcc87xPC+ZTA4aNOihhx4KgqCxsbFfv35xGTEumMbPQms9bty4c845Z9CgQXGo261bt7Vr18Zp+I0bN86bN++8886rrKy87bbbYknEp/CeK6KIzw4HVQFct25dXM9qa2s7++yzd+zYAQDJZLKsrKypqWn+/Pnz5883xmitJ06cOGXKlEwms2HDBkSsr6//wx/+4DhOHCuVlJT06dMnTgYrpYYOHRq3b4x56qmnoigaN25cVVVV/OEDDzxQKBQqKip+//vfV1RUxCnniooKRFywYEFLS0tlZeVzzz1XWVm5Zs2as88++wc/+MHEiRM3btyIiJdeemltbW2hUAjDcPXq1bG+4f3336+rq8tkMq7rrlmz5sorr4zTRmEYxkmrpqam+NKO41xyySVXXHFFr169HMfZunXrunXr+vTp895771177bVr166NU2+pVKqzlZh53rx5mUwm9sUmTZp03HHHXXTRRdlsNpVKpdNp13Wz2ey6detiNy2VSj377LNr165VSkVRdNVVVymlOjQK/fv3B4DXXntt8+bNPXr0+MpXvuK6bqywzWaz1tr33ntv2bJliBiHdb17946TfeXl5XEYq7WObz+WXBVdqiIOaRxUAHj44Yd36dIFALZu3bpt2zZE9H3/mmuuefXVV/v27Runk+OS2be//W3XdRcvXlxfXw8Aruv279//F7/4Rd++fQFg4sSJAwYMaGtrExEi6pjqsfvg+/5ll13meV7s6y1btswYM3r06KVLlz7zzDOzZs06++yzb7755lwuN3PmzEKhcNxxx+3YsePyyy+fMWNGc3NzS0tLS0tL3JOPPvroN7/5zU033XTaaafFVUjXdcMwfOSRR4jo8ssvHzFiRG1t7SmnnJJIJLTWF154oda6ra1Na+26LgCsWbNmy5YtsTrp4YcfDsNww4YNJ5100ooVK5h52rRpv/rVr3zf72yluIBorfV9/5ZbbiktLfU8r7q6um/fvtXV1YlEQinFzNlsVkQGDhxYXl7+5JNPWmtHjBjxuc99rry8fNq0adXV1XE8O27cOGPM0qVLReToo492XTduf+HChfl8PubTyZMn33PPPWVlZUR00kknJRKJfD6/efPm2bNnH3fccY8//jgRTZ06Na4tfDrjp4giPiscjOsVhuF1110XF9rjyvfs2bPz+XwYhj/60Y/ijEwikfjhD38Ye0xXXHFFIpFIJBJXXnllnCEeNGiQ1nr69Omtra1bt24dMmRIOp1+9tln4/bb2tqOOuqompqaRYsWRVEUf3jGGWe4rtuhWiAix3G6d+++YsWK2Lfq2Ku1Likp+fGPf7x9+/Zx48bFhb94fiqlHMcpLS2dNWvWz372s3Q6XVtbu2rVqiiK8vn8VVddVVJSkkqlHnjggVdeecV13dra2hkzZsQtE1F5efmECRPiFFKMsWPH/u53v4u1rB1djRFF0c0336y1rqys3L59+1+1ZHt7e/fu3V3Xff75599+++04Mp07d24sc73//vsrKiq01jfeeGPMkjfffLNS6tprr81kMnH58pRTTkHEZDJ5//33B0Hw4Ycf1tbWJhKJm266KZ/Pz549u7Og4Uc/+lEmkykGgEX8C+CgqCqKotbW1ttvv/2ss8665ppr1q5dG+fU45T5RRddNHHixO9///u5XC4+fs6cOYMGDTr22GM3b94chzO/+MUvjj766AULFgRBkM1mf/jDHw4ZMmTBggXx8WEYfu9736uurr7gggs6Curz5s0bM2ZMz549+/btO3z48KOPPvrCCy984403stnsiSee2KVLl9LS0kQiMXbs2P/8z//88MMP4wrXu+++e+KJJ/br16+2tnbAgAGf//znZ86cuX79+iAIli9fPnXq1C996UvxihZjzLx584YMGXLRRRc1NDRs3Lhx0qRJP/3pTzOZzKOPPnryySdXVFTEbHXfffcNHDhwxowZzz33XC6X+yTNurV24cKFw4cPv/766/djsQ4EQXD33Xfff//92Wy2ubn57LPPPu2005qbm+MawvLly4cNG3bCCSesWbMmbnDdunUDBgw4/PDDY3LM5/O33XZb165dp0+fHpNXNpu94IILzjzzzJUrVxYKhaeffrqqqqpnz54zZsyYN29eZzV8EUUc0sCDWTvWsc4jLvnFxfg40WOMiVeNKKXiMlMs146iqKNOH5OdMSZOoMTpoSiKfN+Pw71YI57NZn3fjzUQcVQYEyLuQexYEVG8ICbWfCcSiVgn6ThOR8sx38WndGhK49U8Hf2P49Y4URWfG/c5Lj7GC7MXLVpkrZ02bVqs847FDZ8UTMUmiqIo9nr+qpw9piRE1FrHkvo4lNNax0bO5/NxKB1/YoyJlxDGmoyY1oMgUEqlUqn4LgqFQqw+U0oZY3K5XPxv/EnHkyqiiEMaB0VVN95446pVq/ZbWBvP2P1O/6sfHujy/4hG/jdnHQAxd8Qk1VnSeYDjP96fAx9zAHTczv8yKe77/le+8pVjjjmmSFhFHNI4qArg4Ycfnk6ni2v3D0U4jhOXRIoo4pDGQXlVsXNRrCIdioifb7EIWMShjoOiqiKKKKKIfy6K+YsiiijiEECRqooooohDAEWqKqKIIg4BFKmqiCKKOARQpKoiiijiEECRqooooohDAEWqKqKIIg4BFKmqiCKKOARQpKoiiijiEMDB/g7g/wL76uEREP7GCg8RARBA3H34Jx0GAgL/2it+/udrlWX/FQgHYXCAvSdgx59/IRzMSvIDnR6Ps92Dbbd9PvvvVv2fDvjdR+/t+UGf1Xn44P8v4+FToSprgjpcKyyAwCDU6dZJkAGtAlfS1dA9gcoiCivEUIAjCptM/TbZ2Io7UBIlUtENe3VRXV3wLFgij4SUpUjn0MIO2ZGDNo9dQQaU2MAMVqHvg1+CZa4kFDusGAC1cQo6aJb6nLQicEISNdgbCZkExFdgURQIhBSg6BazJYNZQONSSTX0RrIUUj3VBTZ0lV+hanxWoIhACSAAI2NIYRPXZ6XNY68b9ARyLUYtXF+AZhdLqrCPSwc2tRUhFGQId9ntWWlW5FRDL60dl534Gy0IP7GFEIIWrs/YdlQtypZb3PsdGCQIICjEBDXYwyMf2QewEYkCtmjztmmjbGiVncwFl/wK7NoV+5dRF2IQREJgJBEA5lbYlY3aWDGJALKggAAgCJAGKKNynyuEHIVGxNcsoRYX9v5CamQiS+Eu2SxsDRJjQAJaVKhIgFw2Ik5EmLAmIExxskx3BcAGu9FAVCm9fMfxxIdOZhSxEUM9bIq4Ma16l0OFIkJjdsDWAgckoMmEBCQMgPstH0twRZXuqsFBwn2mIhsBzRgoq0NlQ2ivt1saeGte2i1BFdTWUs8SVaElSUA60pFbAPEKsG27bXAx1U26euQjOXsbFA4hkijaqj4SxlrsTeS5VuXVrraovd0JtdiuppfjlrjodjpLDFoAIpvbJJtFkMnU2j4JnRIC1cmqIGGE2mEGVlYxiAjYAFobuHkn12WomTEqs9VdsV+V6uqDJ6AViCVRRrMK0eBm3AAQMEoESkskSNSJ2YlBU1kNdkV0EFHhP+0nbz8VqtqqPvpZ+/+p1+sjNI5JWDIduwQ1YsEvYN/8mBur/lAgx7WEGOQNb4OVz2bvW+z8yaggUIGlIGWTviRGFI49PfG1fjDcEQPo5jQjSDtt+3XTD1brJZEODHlx0wCgwaLYiPy06TpVTT/VP6sLVisuidyoFRrua/3eSrXQAFWampmlj1ZJtTZeqFlbYLQEogQDzP4ivG6NWhlhbnJ4yhXpG31b1eY23Nd89UZ6f6Q59uLyWT5WogAIdgqg5fH2ny+G5/qb0d+ouquUqwwFv2+b+S7NHyCjryy9swt0/au2EgABQRBEBOAG3Dkrd/VmWOFJ6hLvxmPNqVYBggiygPok/8hK+Fzrf83xHslBix95AHbvLiSL4HK2Ktf96pLfDnJGgDKOZRRpgm0Lwqf+GD7e7DSJtBf8di/0XS6vDfucmbp4jPpcuVShuIiGEQKVm9P+0Bx7b84LUBIxRQGwCDjCojRKagRPmp48fzAM06BEoyO6c38V6kbY+rPW67Y5q0MdKS5hVQAooFHCHmFolBXjKAz9KNk/GHV9+ewmabo9e2VOdp1Kl5/qXmitVp0yFoy2Ebfd0faNnbRsIp57Ufr/ujbVQk3/1XzLu86CSLPhUFALGtd2fl2CAm9o7qhvVM8qt91Q9jGqIUYIMMK8yq4yS55ou2+F+3bo5Apu3o98Ju7W2nOye9pZztdK3W6sIwRQjO+YhQ8WfpKw5VeX/2wgDtawl6pYBMRdAQtnt11jFV/o3TSepoHGVeGKX+W/sxN2JcL0VJl+gfcdFzpRFSAAAYSr5IOftl5tnC3E+LXEz8bDmShKdeqwsOsIAKHVBQOKJVhn33oy99vlan7ei4QNiDjgOVHiKDj13xJfrcU+KesZQiRGoFbdclfLNR95ywwJi2jrEiB0etWBeH3M4G+W392Fe2pLn0UY9gn4VK4sLM3+rgZqQKASCcJORKwsoYBAotnJWcp51osokND+GR55XO7c6W8BilJcXm67klEFaG1Wba+5zy+zi04xX5nhXu5o8gSFHQLaldi+zdnisZ8yQuAgKAAGiAxgQA0Zp+FRXL4688bVqZurlOtZR5Cb3G271Bajo9aw8Z1wweeds0AIwQKgkAFGEKiTD1fTkka3ngUytkUQyAACNTjBVqe5SpoYUTAi8QQFAQUQEAVshrLb/G3psAvaZk1pZmzBcFuivsI2oZgDOtGMQiJiKdhiP6pT721LbPbCxJz8b8amJ/tQqsERKBzg/ADDJm9Hk94YUaSxwuDeCU0A2noGnbzOsc4KsjZUoHwdr5qdu3ktLS64OZe90qi6hmsLks04OzYmGn9ulo3Pn3Be8oYBOEhZrZAVS4Hatnv1SFASihaHRAsKAbOodqclwG3zec2HhYXXej8fqiZo0Bps5wFmMUKRgtMeqoxFG6ocsRvqXMCh8YJyU0VCZCVSlrEQoTVYIMjXJ7a2UlNLPqMibSlSnVgAQblWtbq7djjNbaYpZqMcmAZv53Z/k1UmHXTxxFg0ebXPV61pK4ZCBY4BcfYNkBEcxWEewz9Hjz4it7emG0MMykxNVaGGbVig7K7Upmdk9mq7/Gq4tVb6aOMFOlcwme3pTaWmASQLnZ0jAERxrAQY1CeaQ9WegxYCFEOtlNnpb2t06sWhNzMvnc1fTVFJR08EBMEWRJYUnt9SstwSa0kUkEkY9nWujQKH2aBQpCLKvRD95gn4VUuywYvEK5QmsYqQMtTa4tYvML/7IJh3Id5wlPu5BFcAokW0kmv0Nuxy613xE9YJdYRouNMb2DFiMeNZDwmAIuhk/88YnwpVGXSJUQGMtNM+r7/giNoTLwMoFtCste8nHPYEjJH8Anjhv+ytTaq+2nT7HM44Uk/uTv0VO/WwbRm/Ps88WeesfVLfkTQl0/Q5pVxiCZkVo2Z0B/Pof3f+k8AncRE4EjAY7OANf+EnV+Kypf7LzwXDvuJcz6QtBJYso0dijQ7fiV6dKmconVfsMpIFUUAGo/fChTnKRypE6zACA7C2DJFmFBBtPUEWjJNCFkALIIAwsFAIyCSE4DC6DMZSJBAhO/zJaQIEQQEAYrQhBPOCxzI6U2arEXNrvZXr6YMj7AQgZNQH8LwdFgXWIpUGlVfQj11MYOf2tWJwrB/1gkFKrCjewnX3FX600l2k0Z9oTz5WndYnNSoJ6Sw0r41WvmYeXY6LFrjP2Tx+PX1zlXQDIEvCxACYCkuudn7ucVKDyygWwYrJ29a3Yc58++ImZ81vcz/5TnJ2te5hwencZ0FbYiu/5F8Vcs4iAhAhvSN/WmD/qGzJGfj1XmqA0mLJEZBq6OFBKgMNGlgzAIAlo/atAglQqJiNsQAGlUj8rhIFkcfUzRx2jvpeyugC5Rz2Oj8Aq6gyWZ0yaVAxKXSiKkEmaJGdz/DsHc627kGfs9xLhujR5aprxJltvOXP5olFeu4yveDx9rsuTf0gDVUABsgSoAhaMQb2+RkoC4yaIYqUIFOkDIqW+O0IKBqEhXa5m9fwB1XUr6MnjCDMOci8o15DBKaQohLUYJVRsC8VQgSIgpKF7Mvhbx+H21qorU9+4PHuucPcMVWquzBt5rWro6Vz4ZFtat1d5jtfj26c5JyelBIEYkBh7YkeEU3+vDpbYxol7t4eaMd30kkpZ4QI5Z9GVJ8SVWkoIIig2xeGTVP/xqSgI2ErLIAChIIAKiRTb7f8Ibit2WvoHQ053796Ep7oYApAoRPVcPehNKK/HvL73O1rveX/be8cYo4cSGM99gRIMxJwJVeMThzvSBLFAWBhsMqADY+AyTPNpfXw4XKel6P/k1DKsa4WFSGX2y4F1b5O3mmDJherNDiyJ39fwOC9cGEuFZE4ymolgMDIGhQhhkKhC3lAi6IBBIQAdwdCCGARAESxBnEJQLEGCgGQgOUAPtVu2mMQbOL6JfIaQzDZTl8XvlOX3Pp24bVh7jhBkL/xNlPEWrMqkZLJ3qkpqd67BwXAojgWmAAtKgwzL/AD7zsLXfZOM+f9m/+f5bqCJaEQK6Fnbxo6VEY90Xrf3MTvl9ELL+UO/6L+huv4KFoArDJgkiP1sUko0+IICgiDEChzOE4Og+Qi+P02XFMnH9VwLZOFTlkVBdohbyKdCkAGWQOASFvUOE8/5bI7Qk0+Uh9NaAVcg3mfkhYgRDRIyEpARUpc43ZOOSkRFIXsIVgFAaMVQEccRogUlnGvqfrMFDqhLqj9rYcAophQBID2SVWhJdHvy6JGqE+Fpec71xxH010qMQCgsCsM66MPC4LCYv3yYv38dL4sqSu0uAJIEgEoQd/Zd05pcIwIgoNiGTSTQUBRTBYYQYFfYiqzqnmpXTxOneCwCwoFAAFYpFk2fUTrmCyiEIQIguIo2adurwVBUNBshLVPRnc3+22HRSMv9n841Bnng4eigLAb9R9FU3pHwx80/3en3vxUcM8ANboMHD7RAAAgAElEQVQf9VUmETlO4IQhYbX0m6yn+5QGBOpsZQFDjhJDIiT6nygZ+FSurEUHyjqsPSYEl9AhdAgcAkfZhGbXEa3BAbRg5Y1ofr2/3hfnDPfSsfp4H8u0uEgMgJp9H1PD1aSz/CuTkGxzt71aeMogC6FF0GBdVqLIgAPgWAJLhMjELmi3B/YaLP0iJc3UHGKWQDEigNKgDjOHJ0xpPX60OlqirA/IgkzsGDQ7edMqWFJhS8tMpShryRAQEZAoi0gCoVIgiuLk0e5crSAggiKxCGKUNRShEJCAABOysvsndTtBACKMLBhiWW3eaHPrkrZyHJw8Uk9VnF9gnmnEHQxGMxzge8UsiFCI1M6gGVNI0LEpUcq6hOyIAwgKwp16+7sy34oaYo48NX1JF9sDJEGgicVlpcGrwd7nlf1Hfzss6xTm26dz2ExAgEzCCEDCFi2iZhJBRlFolYCTIv8ommRBtavWHLRaINi37qbQQUUKPYWOBx6KB0AKklaHIESgNJGChALlS0o0kAAJAYJgqAEIYHcif29dSxBAiQFwBYVAIiQFAKhByBVENJHWrriafc2Jjg3ZI/AAXCG7/0uEASBoCNtCYt/Bns4oxaXEOnafNUAX6D1Gn1wVVTrgNGCLAAMqBmZAABG0tN+cwpit0VKkRASQRBMSgiEGh71RMNkx7nvR/Aw2IgMIR2DIMkvhL9mnQwl6RAP8MMUkAFaLkv0GE2tLUciFJcFLTf5O3yTO8q8Y7kxSklLiKFIKyUE3qcom+5+b7lyiHbVJf7QofCmgvIAlIc1KREgjEmj2tPUQnY6NgLRYQsT9clifOT4VqrJADGAxNFQIKUCBji3UIVMkKBECMTFH86Nn8yrfyw4Zq45J2jJkAgQGRPGErIAtkcrh6uh+wQgDuaU4PwstewatWGRLrCAgiJREBJEQWJVHYADVCmKRNPsWQYlFEATwjVseVg/ikQFFi4M5IQQomgQJkYUWh6/knLaB4RGlXAWCIGLl032PIFoAAqACtr8ePQ8CPaJBI2j8OHWCb8ob9MZ3zQIQJGE8AFmhKOsqVgIFgAgFUSjemKzRBUZhxcSK2SzOP1uvtiXFm5a4qNoeJhotOijxuxxQ0INEFXU7VmYQ+Ju8tRvsMoYojngBAJAJmMASWAIWkIIjEbFvSjLQGOoIwYldVPUPMZ1YBgEQEhVQyGgZrQALsEXDaOLkPn9sEpFoEjIALI4hMCQdG2ABIUJkEL2fw6sAAHQXKkE07ZJZHr4UQiakFh1Z1wIAETpHwynf17+9wX1wmD1SMVj4OyewRfbZH0XHJbBku1r7YWFpSAaZlBCjbYbmd+DPGtWo4HME+pMUA4wAgi1Qv5CfNRAM5ZHj4CTXei4Q7JN2QD/yj6bpZYW+Oa/xfZjbzoVAGwcCFNexqJgFxaq8VWHn9tE6CCZ+PzD+M2WYn8q1HRENiIAEJEZCyHdsDEHIbAwQQKhoJ23eQesV6KEwrgJqHHSB4uQBEgqSQnA1u5VcNYGON0jbaPsOWGXBIjKAZbIhGgtshRmEgQ0bxVLgtsXyx03wRtLYAVDrYWmIpAQZjAAnsGQinuRBYqX71nbcYMWARFaiNsi8La9pwEn6zHSYAnCQmPbMt7+tLel0xP9EbYPEnkGp47Xv6IUW7QT/5BJV2U8d0cX0ipSdZ5/LQ1tEwQG+rlWLy6gjAjKJkPNBJ4OHEkAExkZWjCVrEd/D13KqvQtUDaUxHgWggMAQIiIBAZAQKJcT45OTkmEJYPRGtKAgecA9VBXXwy1wnLQTq7gA0PYRvfVa8LTDUYn4PbA7IP8vX8KI8RASshBQewvujCSTkaaMNLVLY7s0ZiWThVagkFTB2T+LIgZsCAWGlgAyEbR23vJsAgGLDED7vQBYmMUZqo8q5+45zP4eb/mRvfSV/KPLaXk7NgsEQlFadT3MmTJYH5V0U6JA/b26IwQfQHWnbr3toIIK34X5ecowiBZlSbbJtjpvU01UO8Yb1anwJrivVyUYITjb7dodic1IMFofm1QOAVvKyr72jxyqVt2OlHEu+zu4rhl2MSKKFQRUIIDGhhFDAFEo+VDyoeRCybU5WcsuWhLAzpXlzx6fSq6KyejQDVWwEObsChsoZzvEnChKsRrrHzcFzyIyzWFDoNuUdXp5g0lphhAAEUgzATGIAgRBiwiD9RFOoIxT2JXdIandkReDbTS7nseHPJuIxQMhYb7Q8IG8vcpZ3Kabu2f6T0te4nOSiAHAki3oIIrsWPfYR3OVO/S2DbCyJ/ZBSTLaXbh6I75TEfY7smzKa+FvBBSDok/78QgKRcjyhnmxQK2VQdcjE5N9k0JlT8Cz74cfrbZvb4Klg3DCgQyOJtKBJWj1mu/OXudzYu8+ZNe4nlR8teIHgG6IUi+NxLYCuvrkMyCK0mAAI2BXkAUYEFEohTWl1CUPO+rkXcaA9mRzLYTP82+SppIQAIQE26ltc7Dqg+i9zck1vik5yVxQ6w9AcATlf68dFNHtTvapcPbT2d+lGGynFzuTBBBm/CYCYBXsaxC73l02q+0SIEKrgeJgEeJxmIiqTi+/9HAYKQCgGTsl1BBFKKyR/hfZ6x8KbtucXPu688z7Zq6OSqts5SiZMNSb0FeN7oG9fS4RQAKFf69XhWAYxYP0aDj+Q1iynBflIEiqCNmJOPt29FJe5Y6nqSXQE4E6cr0fa4VYbBM3k4hSJbVqIHMSSBzRsu8LUzExqN44xGGvRbU0c10vHCZAFoMIoyXw50x+h7LVGgyydCiHR9DkSd4X08ph0Fro72TlfwQ+HbECGQYTKbMR1m7BDeh3UiQylwZlpVg51X4R0ViwgIJgEuAR+HvfHgQAao90WiHopC1R4lspBBhYso51QFyhaDuu/xV+J+GQWBBMGAowQcZiwroDs0f8e/o7w9UJDroAoaBR4vsWUNLV0OsIGfcGzXmj8MoY/5g0pEKxr4cv5VTb0TS9kqsj5RMUYqdXUABEgUSaJQAAIwgkCEIiFgUMtVtQAqREAQKgEj6wOmEvGAUstdDWN2WeJTsgHNMr0ceQ9SQxOnFSSXhX5DXPLczp5413lOx112Rf3SIKAAuagm5eAq8YJ+rYhSyaoSzs8xX5gSOOwmZDIbKrUbkmRdoH3DMMCBAolooJibBfaSs2uUooK8ICROIAStZr+x3erFGjWKMo1KKNIZdCx6vN9Z6sZsxIXulhqSCTOH/HyMa4zACIYAnBILCCQiJruRWs25kVGJmJCdgAGXABJV7jEP8sWTM2Lkm8asHzDFon1/kKZVHNRDnDqtA1PkNnlRIIuAgFTTIhcUZ3GfBS6yPvOK82OFuyWJ/1t27ljc/jf1fkK0+kc6f5l9ZKDSIxcgSa2SVBxJAxUOB1NGjAakYlSMBGUNAYYrIkBEaMK4k0V01OnPRsbnadXlHHa8vUWEDbKA1/phfSkTPWPZ44oQRABAVQkHEfFSaDUSIWjEUHIGQEBWIJFXv7u/aiEEyJVyHGF5A85B1ARivEIUXbnHWtaqugjygW9o6fRJCeCucBKgKJXYd/Fj4dRRcnBbRrvf7REUNktG/9jj0FbZOSHixHCTGgRSwA6kBACynhTzIEASBaA4qRNCACC7AAoFBKyoeGYxA5j7kWbmrBrQWd7yo9zlFXjU4f000GkfWUAkCSPWsEYtHtaHfaEnh1XfROk7OjxCnJcv37wevaTR2pj1e4b2oAIRZpgoAWpYQASAQYAAmQicAVsAIMAChEQv+TANBGlNlgVqyn1cqmRqePboOmAuQRjWCmK/bZDG+sNAtaE40+JD+pVRRU1iN2k5I6zpyZCMs6VsgwoCFIS7kmcqwJlSZOhI5gJEIZgKpP6paifAR5AA6lVDCWjwkKatYDeYIPrrWZrGlpLOzIqTyCmu6cdXzy4n44NCUJBE1CAPtUAP8+aJB0mBjPp072TklQ2uLeTAqBboPG/wp+us2tc/b1fQmwu+l1LJ4hnHbElSiETmuMSqLkYepwh4i1lX0DOMFIgJR1fdR96IiLyr93On9lO25YH3z4QWHhZtnY4tc1Oc2PyeyN7duvSt5UrqqRBdGCWAEBIPwYQTOKIWONKCTFDu4RSCgABBbkcural454H19fXHhqmD8MVHJTtCbPLWXQs58zYkewDj45TalFMVgEi5QDpVzrIghZDSCyn0aZQLGiyANVEHCR00qMOIgCSS7pGQwabicSESFpViC79UVHqKNRoSXU+8k6PnN8Ol4VGqDQZW+ETP1393qvk8SYkbVxFGlAAKQkljnGzXphU7jDaKP31Yx0wLLdGmy0OqesKlfdCBDQAooSr7vb75v0cyVJRlPAppcKT71gH2pSDUvyr45MHCMO6wgBQwbpnEBFoJF0VCpKNHg71vKqrjKwXrZvc9Z3ibodmRxHoDoPDpS97kY8ADDOcaAwiBAq61gVhBgIiBZHgZaDTlchaxGYa54sOM3a6JfNb1+VR5FdAWEIdqltWWU3uWuXBq9+3j/Hg0RMtvs3ghGBUaKTQdWXkt8tgardOfLYeigEisAVUiBOmlxHpFVlrHWAWADwYylLESmAacCdinUV1iAgiACIEnJt8lverSmoBJECZlaEb/+3/eVm74O3ozePwlOVHoqgBRHQ/iPiv3hhFvUyw471zhLHUfsmahp4+9N8H8l2C+G+j0xV24Ff9K92wENU2DHO48V8ft7lciAUoP1CmtgzMyrHIlocV6pKVGUvOGysNy0DFzbyluWy8M/2qVXO0rdSzy6yx5wg/64QFTMiW7K8v04LSFCQQyxYEhJxJUmyO2ogAURmitJSMRKOfZ9efx/+0iZtpUzL5LUIC+PUmZVSvQs2HsA+yJpJUlDiMWUpaJcmBqPYEZJ9PW8QsAbtlmglK06IW6pqMF5qKwgSDsHhF6a+nYQkgI7DzNiaBI5CEiQQEZSPD5XPDJ/KhUWMoAEsOGCrJJ3Cso6tFFIJrZUiIWBM1Dh9ago9XMHldkmrNP7VX/oSkSxk3gwXCAZVUZdar58SJSCCoEQlOFWCNVVY24379eUR/+5cNc2e65nSFfqN30Q/Ldg2qwxal/ZNuyJAre55RDQmwHCp/KUVmt8xi0LIj6JJ5VCBgLKvtASFEBQChJg3ZBgl9qhk9/JODKA9gCwAOKAdcGS/CO2TYcnuol0fwFtI1nFUI+3cilvr1PptuLke6o2Iz5UF1f6n6LEMt3T4bvuDXYuEAo64lVyRxPIUlqWoPEXlSSpJY0kC0xZNROKAMwQO88Gph+11tIHFQOf6f0d7YD8yHzTpXcq4I9Q4F/zYRUMm1/rlWFaJNdXQq1YOm+J84QLn2yVB951U9+vw5m12tSEmQWI8gC9w8LCIlhhIATHGDvGeTRAFMS4XW8Uge3XngmI0eFCZltIEpPdumE5g2pVy3i1PQtxvJbNA1mQWhH98Kf/bTeFyUJEC5bHvklsFXQfoEWfQpZfrW3oGfUHy7wWvWShYhCQklJBFm7d57rSMbM+iV5uHjAUhAVd83FN2ERQQAhBH9DjvmJKwvF7t2IhrdsHmd/kvPvvHOCcrUATeAcaSAAhiV+pfEnYDsO+ZxQFkBS0g7+cDIUgT7nqf/sxMNbZnFVYyEokCUIygKZ3C8gRVJKk0RWUp2j1hfUmSkBLYbep/Hj4VqkLRyvosfk5TxmFE6diAPYMegFIWtZW0pAd6I3Wh7EN8a2u41oIREBEWif+yiFiwDWb7clxM7PdVw9OSQlF74hFQTI5owghUwZAtgbIz/QsH2yNzqn0pvTg3eiygnEUwKLRPXRqFU1OTMxTKcvt6vVnxRvg8Ao/SxwF+PM4SBPJUQlia8o05zjByzFEksaPFOWjNmQwAOuhq1J3n/4Hnq4VgVeHNZqpXUfpyM2um/+it+OKt+snb1WO3OU/+2P2v4wqnp1htVmt2hFtZ7F9vTozFLINhwDbdvNvawBAHqawB0LPaAVbgHeNNJ0rlseH13MMh5/fto8S3E0rhjcwTBZ1PqZIjvONdSO+xAxBrAwkGDcwaIAmpEXrqdLhEJNrkr3gg+nG7tLBYQwEfxOjC3fWWT5iKAorJNZoYGY0TaRRAkXhTQgDIZBmt23l5jCAJaAkshQBKdrvq0vFQEDSCg6wtmv3KlCK6gbf/LvuTe+mGxfJyCIEIGQWCZJUWZEdKelCfvjjMYNioNxFYtE6ZrtDgRhI15RoMBPvdQwQma9otWCWUVOk93/MglgBAk6AC6IV9e8OwjGr/IPv6quCtXbCtBmp64hAEhynaY6q/ZiEEAKhR/Xq4hwvz0uAvjWaXoUhIkPdaJA4Htobrt+j1SqCvd3glpiNFBAqAPKNIkKlgEQTjYcOIjMiRKhAoEmFElH85qhIURCNokozJ3VfZsylwgDRoUAgKCZ1p+rwySDdj02PR3RtxZRjlLWZZwIhYzEUm2A7rn8zP3uXu8DB5HP1bCitihTiKYmQShxGRfRBXg4cA3WHA2d7lXcLanI6eimZvtMvzKqOiWJ4DCIzIgo5Gpy+NKuOqVr3zmeChBtqcsr0Pd0clwSHYvcQCAAgIKPRJHabGs3Lq03Xr7HscFnIUsQURVGwDymzlj+r0eiWJPjjIkwQLgbBjE4RkyALwbt6INwMWcmxNyNLKzXMLj4XU0kMGTXZPORwmH+YcMYTGD3DGD1Cjh9rxU5zp2la26IY/m2dynBFBBgHhzh4ooeNIkpVVIh6UYSeDIxAQKEBQCkExFnrCqJHBlAJEi/ScRfJcEIURtBprLQRGjLFBRpreiF5c6M4l0Udlp3QzvVAY0DICIwuyE2umdLw2xiah5Az/gjHh0UZF7zqL5pk/5LAZLf1NwRHHOnSOly7s9jaQGZCJiVEE0LFgCRADzQlWFpH29aqsIGjLZJQAEQgLi4CIUmJcqwMVMgMwASsQhaJQiAS0Qd69jHmfKWA016iu6EaCvACeXc+r2FgLgY60ZtE2YVQuh+3bcIuAV237kSgkUwkDS6TaYnapekXyoRgLoYABZlvAoFWa34rmRMqUBZU9VF8BEDIoRCwEDOAQok9VE9UJCmShemIuPskSjICpKUoTK7s7TNOCwGT3U1dYAkcgSf6J+txUWN2a3PxQcEszN1gjIiyWmY3lyNpCo93xkP05CJeGpRPgdI9KHXEErBKIiEkYxFMgJNR5wnrgAyFQrK396/mZzwafjlfFGEe2AIgH1AGS0GgYOxHPIUx/oOfNzn77A/yLsWDAWDHG4Hpc+uvc9xfpR5HM6PBzR7snISCyAlEgCGD3E48waos0jCaepi4mk9iW3PhE4d6Ic8QOArKgBRIGxYwQVFPvvjzYYPYN76V23T6aplRKzwg41kPGTgExWNAI7liZUlEoz1DDI/bn79q/iM2wykYcZKBldfTu/dkfZ1RTOVdMcE5A0CTIIAajgjVoOYct7dTQsbXpXYG0ZLGdKdwoy9d47xI543BKie2yby4ABb3h7uSu3BsR3oYXt+NHHHfvY9kqEUJWAEoOnMkWnYay090v9QoGtUDrr4KbnpUH85yPMAhZjOQbcfsfo9/cV/hhVuW7BT1OLblEHFBWK1YoKCiW9slgCwABlWL3L/rXVBaqjco+YWdvsuuQ/5YMR0AADNlQRQJ2TxoJ98vEWyWRZksigPslSjC+7XhpLypiRBFAAxgiRgaljRqNNOdUfbtqaFcN7dTQRg1t1NCuGtupIc5F7+etEJBPiVO885H0avf9+/Mzl8rLkbRGKlvATDs1brFrH87/8iO9UrOe7Jyk0VdAlVjd3wwUtgudl3+jb9+m1+Z0u8EoxGyT3fRk4c733L8g0Gg6pRSqHdAMZBEs2oisQSuIJHqYMz4Rlda5m95xFyYhNck/zaAiMQjMZBgNABDHIdteaLGAqESNgIlH8+nC+GfvqTujq9fKm+1UH1LWADRh2/u87Pbgsg/0nwoQHa//7Ug1QVsPBBitQRORNWgELMqBhMb/XHxKuioRQGIFgJb4ANdA9NgxX8Xro0JmofPfH6jXvx8uG0yj+kJ/LbQJNq/ipaFuIoER+WOvSP8ogWVKVCw8FwQQ2i93S0AKKA2lJ7hffDv7l/fxtSXuywt56nHqixZBEAGYCACF0PUFj6MZq/idHW5jNZV/Xp2mEQEo3J31FAC0SATkWNXXGXxK5vyn1X0b9Xu3hF/qmzuiUnd3I7cO12zHuqZ0c0V7l2nqnKFqvCFWjIwRgiRYr/TevK4w3bd7tU5MIhiV5rt92bt2E76dpVbXpCfoE3HfUQgoSklaSj7vnfY7XtmgN62wi/voYYge7f+FMAxohYygATGd5Jr7QyMCuaPg8+d49Y/lf7nZW/Mg3PBy7uH+zpAu2K3VNK+QN+udtaFvqk3vr+qbjpDJKA4oYBSJNZlCIiJ76JJYO4yhtkNp4ql84VP2riZV9wTf/3X9g0rsfoBBIsgAlkSI41Ux+FcrTMSoEFEYkQUMdlrNJ8CCzAIiivdkUhBIiSKGNfTeN3L/j70zj7OjqPr+75zq7rvMmpnsyySTfSUQ9h1kV0EeQFRA5VF5kNcFUVxwA+ERBDUiiIKiqI+yKKiAICCrmGAIQsi+75nJNvt27+2qc94/+s7kzmSHBJKxv+QzIXP7dldXV/36VNU5p84CEwsTCpLAEBxJOlt8XfnPq3Uiuq/2EkJG8mz+76WZxf/UJxYFL/yvndUvU1XtJiVd0VZv/Sos3pLcmLLpkzMfmFpyvBBYUKzFFyf+37rs2jVm8cPuzlc6/jLWHJFwJXVm3RIs7DAbLdvRmSPOS16ZlGKQgMBqPPENM7ECloirzPgxucPeDP7uNDeIx1XR6MCVitfm5wxFefFIhRwTF0q2UMZIkaepMqq8rPjapra6WfzYLO/publ/Te04ub8/AmTX2flrZE59UO9J6hh3xgeCz5ZoWddJWDxPjckHToRQ/wDJpdeD/SJVRBS4REqKE5Tc9W1H86Kebz7J1w8LR/wte399Yv1Cfm2xzASLUMCEPtmqE/l9F5R8rg/6hCQsCZBjJd8GSS1OulIku53TUziiChnx4fRnNres3JqoeTR375SikxKSCGwiraW+TYMYzrCxk7xTBrSO73ALhtmxVcXjoAkQgZCw6VSu1NcEfAEYAs+kPljyBbSbZ+kPzX7Dcju3NfhXgpKCkNjr1z7kXPOxM5MfTVBKYVhD0kDJsKY4m2swm6VgOZ1gWRKh59bR4pnZl9J+ckQ4dUyfI9hJoccUgRSeIxypZz2aub/R3/rv3D9PT1/MXgULgwuW2EHGJdLZsmRYDNqV+zSJpySG3Mnmgr7Fox5tvnNu4oWVyfmbw2XGctYXhU3bivFa/anELRPk0JyPtOSUAgJ7NkhKUTpTiiIq7PlirK9MFLy3+BOv1c9cWTxvbvjyG/b59yQ/ArPzBkZk1CRsKq1lniRII8nQHusGgU2kbHHgUqS+cs95Yk9MIixOaXHSeZIUASAJz5YYKmpNtuf8dUkJnJ913M3H23Neh0kL1BFzz6oyRjhNlVekbijLDHzZPpShzCpevjKxJOk8lZDI79cx9FjvrA+Xfb7c9nUmSniVGIvjr/a/f2/7t9cEi2tTy9fzClVnCH6uJOXSozNHf7r0puFalQ+Mp6zvTCpb7HPS5wSMp/CSmjw1OH9l+Jo471A+NYWkx6rqs1I6W0om9BCQxz0caxWBwCkrO7/CG/aF9PRn2qc9bv+vIbnxdfOYsjpiZxyp9g3HnEcfPy11UZn2ZUmAoaRGvIQtSqMkYVOc8IQNH6hJdWmHi25vkxatXxq+ltHWQTxyuD+h0COuB5FzEgkcJCcdW7FmMV5fkVnSjC0qXKSVI1Njx/KUwRiZNCX5ASUpq3Zo6zL7ZhNt7aMDJwZHd7oXbIv8AJChtnm5We3U7Is/Oji0iIpWhQuaZVNfqhoZTPY1KSRZdCzPzWnWTWXUf0xwWIAiUspRdmH4SjO2VNLQMeYwD0mCCoSUMq5lDRYv0zfWZVc2Uj2D+khlVWrMWD1koDcmScWGTLS030HZZbk59dgonGFl6pa5UZXIQ9CPBza4LSE6+mDw2GCqpz6T371+INCcNi/I/bsNjSXoM94/LMnF3D1rXQ6Z1XbRRl2R0tJJwXHp/Cz4jqtco/oRchQ2Y+tyN3eFXbw5XNPBzWktGuSPGsuTR/GEpOnrqx95ZCqp1VyNW75elwaSOCxxukHQ6T0dpYZQKDkKl4Vzt2I9Oxpghlb54wMU7bwgUHK1dvUqne/ZYIx3aB+/f2ctKUAKaXMti92sHNoHoXpEMAFqCv0fBbYdTUuyr7ehtT8PGeNNYzJZbV1p59VprSUQlLUz8QUK55jFc/6U5IlFKDPdw+uifM9QsmRz0rJelqykxSs7FrVQo6Vcqa0Ymhw1ng+r4rFJUxr5BEQNWMiFyNZJ7Qa7fJ6d2RI2hgg9k6qi4UOD6ipvSh/ql9AA5INUYOvCjSvcPDI8zptWTpVQYynT4DaucHMUZriZOJCHR/MnLVK/wL2shDHmkH48rIcZqBAoKwkLOVaoZtC6AUvXumUr295sR5PCK6bKIaXVk8Pj+pshASWjgBAChDSrrQtzs9vQNIRHDPcneEi8y95TO2e/SJUVEQpBQjBG/T10iBQVhVjNOQ2thETOoyST77FH4G75B6OJZbJKAqjXw6wqLIladI4LVKNZWEdgRmCUQHCwghBwBEPwGR4poOLIKpSVGB54m73t1AFiJXQaWrUgZfY88pmMh6Awql4UAgdYwIIY3QZ3eUnN/yQlNQyfZDuXSYWSCqI1gTDyezQIevhCqKjAKluAjfjEezQFKRCHEMLO5RxlnaohY9g37BG4MJVlNK8kcI4sIAFSOz2n2s6JJyYY3mV+W4U45BTCygwDMt1cFlWjhHwKYXisHnXPf6IQUQGJKghs4IHgkBPYaBl6pxcmRzCsHkWRIjtpngIncE6dk9CpVYDJeOwTGS4wTWAAACAASURBVA/GbDcikbxnsgttNkdZJTHqkWGDwEMicl0GfEBVBVBHoUIJxkMAJRFVdkqiUIbXlZVYVUPKEJi185e76E9qAbawOcqICwXOkXpIBJr0KSCiQpups8CiCAnM8N/NLJ+7Y79IVd5Wyr/Q9thtLJ9YX52KQFRDQ5F2EAGF4528O+e2McjOvU5UCgdUkXOI6rZS5R2j8ueiyCFQ4ZAPm94uLbETcJSlSURFyRCI81O+3TRZoFHC9/xyJfXshJFbJVPXzFLev3x78rnVVSPnA2wX4B5VeOed7mmFK9QpGCRqLeVYEwQyxBBl3u7V2rnErtGa4s7Pmd/FIwpx2e1bSl2UJK/L2Si618LrdmZw73ky3ZZlRguenXa2u50WklQ643doV666mvf4FhVRVY4m4YmUuOf3JP/OiTKXaehADIpCWPMOn6zoTIuqiLzAunZoMPk7pbyf5Xan14JZgd3WJ0OiVhWqQsFgI6petxdY/hlJ/oySP3l3+/OAYr9IVZ499YLsQqCST9qtiMK982fokaof0tmtd9MVNDph9DCinDvaecJdlSP6juS7ULcz2m2CoFCKEnwKSAEf3Y2CbdpDXYKDqE0XnDF/nuigXcWD7rzk+XrKd+m9qHXVvF+RMkhdlEUz3+O6rUwruj2MXZSx26thD0qw/aE9LMbON9MOztq5aEg7bG07dZXQfPAydeYa25lXl0WUrjOa8mfK1wMJwOg2wV8walII2XwwokbebYRtKVkKLMOe9y47XZGXzlazu6rV/NvCGUg2WveAiZzXCnOoKrrHkxaccq977TvFfpGq/EQ0BGDBno1GOttk/n9ViVWjFyMJdWUoy+M6j4ta3C5e8jY/8iKJtuuKmo4gCvaJ7BTT+bTy5ovknW2i1043G0a04NzamT2U8rZMjzehFihs90Vg7n6WTgcu7KwVaqEKbG99af6+Cm9tj1CNcjKrEEij+fh8Oakwh0F+EN11L7u4giBabqNd9r2u6wM7vKPul9ad1E/+eQHojDfsHmSww0vma7LrrbDTEaBGD6fTDs/7l+e/003gtnVv7XxJkahGa6aRCd/VULZJVdeOXdHtC4S23Us3zwwHR90uunMxERXW6F3O4ilU2FFk33VrdQVnicq77RQHplLtV6sqJiYmZh8R764cExNzEBBLVUxMzEFALFUxMTEHAbFUxcTEHATEUhUTE3MQEEtVTEzMQUAsVTExMQcBsVTFxMQcBBy40Ykxe490uksD6Erm0RlGAkI+gci2/GkKUXhRjrq92mc1JuYdJvZW7z0UPEhH2wIpuoKxuceOD9oZ+dIZuRub2DEHLrFV1TuIshkQREhdLpvZULNxQ01tGLrqUaMHDxnseUzqVK2KNjQ0rlu/vr6+IUgkq8eM7d+30jMAFUaHx8QccMRS1TvQvG1kM+tXLfv9H/789+eeW75idSZnjz7upK98/ZtHTZtsNGyq3/Tsc/945JE/LVy0pHbT5mS6+NDDjvx/n7/6pJOOTRq3x3HlMTHvAvEAsDegEKiGYW7ZvDnfvf4bT7z4ig2dOJtTz0sUfeBDH73nJ7d11K29644f3/ubBzsyGVHksjkr5JnEhMOPvv/B+8cNLffMAZpUOyYmtqp6CarQMFyy4N+fvvIzc+Ytq54w4cSjj5r7yjOzl2yQsG3p6rU1tTX33Hb9fb97sn/1iAvfc2ppSeKJh+5fsnaLDdsWvvn6a/OXjhl8DEysUzEHLrFU9QaINBOGs158dtmKmuNO+8Ctt3x70phhD/3qh/OuuzXTke1o2PSz79/2uz88c9xZF9xw/RcPHT/GaHbS4PLPfvXGFgtVbWpqio3rmAOcWKp6BarJZOqiD10qqaoTT3/fyOp+ftgSZlqhIoo1S+Y/sGzRUWdf+OPpt44a2ocJgAwbOqTIN61ECjV7kYwvJubdIZaq3kCUiDnVv/rjnxhBLGRyriOzaP4CZy2pOCv9Dz3uezd9feSQUo+VQFaoobmlPReqqmfMgAEDDtQdlWJi8sRS1SsgQx6iXOgEdYpMS8erc1aFjh24rKLyi1+7dsrYas+DRpsz59rWrFiUcV5AwiWDRgyu1HiiKubAJrb8ew+dScKJVGs2rNtS1+CcGN8//OhTzjrlGDZMAqgRQrajdd6Cxc7myJix4yf2qyzfww3QYmLeLWKp6oWQhitXLGpoaSUgXVpx+lnnDihL5bcwUFLo5g3rl61Yp+qUzaQpk8vSSd7JpgkxMQcIsVT1QpzNzJ/7ensuJKWSPoNPOOHwgJkhEu02rG7+3Dnra7YIlDx/4uTJad9QvAIYc2ATS1XvQ9vbWma9+krOOSYeNLR6xPBKUWJxQhBrrc3Nnze/vqFJyWPjTT5kiscE0Z3tRhUTcyAQS1VvQ1Vb6jYuWrg+B6NecsL4oUWJNJMD+4YYvkhr64K5izLCDC8xeEL18GIHQ0ZUnapoJ+/2fcTEdCNeAexlCOBWLVnc0JaDiJdMjBp1SMI3AmGAVB1R49aNy9esCUXY94846vBBpWWeiHgaNQaG7m6v8ZiYd4HYqupNiIi1Llw0f15z1sJpWeWAcRMmeIaYOdrfXVQ3rVnW2NYmgPGTRx9+WJHvK2xDzaY331zc2p6zsUkVc0ASS1XvIdpTPpNpn7doXugcgPI+/caOHcxRaj3Np7Bqrl2XyYQE8hOp6hFVPmFLbc11V3/p4o9c9twLL1knXdudx8QcOMQDwD2hIJGTSpQtU6OkFETR2hkRVJTyHylUQSb6Rv53+3VUpQqQkIhSR2PD668vVHFsvGGjxw/pW2aIOotBpBL6PoGBIMy0v/LCs5V262/u++WL/3it/+hJ5eV9PCICSfwSiznAiKVqT9imMvm8UCoiKiJhGFprowOYjTGe8dgQE+UnfCj/jf08+0MCNQBBULt2xep1m60oBd7Uw6YWpZJRUSh/HI2YcFhF38p1W9e6TPODv/zpow/4bZlw3OQjb7nlpiMPO8QQCCrxdFXMAUYsVXuIKiT6y1rb1tpSW1uzeNGidetr6hsawtCy8ZKpVFlZWWVlv6qqYYMGDS7tU1paXGQMmXxO4P1ZOCigrKTiajasSZdXVqYlSBQdOmmM53Uzj5S8YaOmXPrRSxrvube5sdUYzyupPO3c06778pfHVg8JDAAHeLFQ7W9UlYiin+92WQ4O4tR6e4iIOIWE7Zk333zzl7+675lnn926dWvWqsfEzOKsOHGqnheUlJWV96k8/uTT/vembw7s1yeSqv3aIhUCZVAoDu2NNbWb27IEj5P9B/YvLykyBZd2UFZtb6lfuGjRoqUr/HTpuAmTRwwfXpbymQgQEAj0llOtq6qIdN0sx5lFd4SIRLUUVVRcS3tCLFW7R1UBFc21tbbe+5Of/Ozuu9dt2CxsyvpUjh4/4aTjjx3Yt2JjzbqXX/7nokWLW9raBQZsBlVNfvHFJ0YM62/yQrVfpUqhpJR14ntqAbKsrAFpB3GCiAsPFVJyDgrLDCYWB0DAxEz5waoQFDB7XQxV52xra1tTc3P/fv0SicR/eCfcmdEk4sJcuHnLlpKSkqKiIs/zYttqt8QDwN2gquRUjHPZ5t/dfft3brujtTnLyaKjTjj92i9+9vTjj0qlUlGH3Lp13U9vunn6L3/VlhEPdui4ieUVfZjcW+jzewvl/0swAwgA+PnZqdT2hzIIxssfA4A99CziXuiLIhRVAUOwtXb9808//eQTTy6szdw6/funHjOBD5TZ+RBKCgOQkvK+f20IkA8YVxXRLJEXZjINra3FZX3TviEVZWaNsvUQabhqwauf//I30n0Gv+9955115ukDBvb1jIN4zAIARLT/m83BxQHSkg5cCAQOVXTGi8/88Pa721vbjPGnHfue6Xf+4NyTTkqn09xJRcXAT171/048cgoTxKSnTJ6U8A1AhP1rUr17KCCihgS2se5vf/7txR+66Mqrr33qhZeCIGhvaYMcOJ3NV7CSABJJwb5FwArWzqes1q1asuB7N910yWVXLVyyXDRafy3c1ow2b22Ayssv/v2az1918Ycv+cMjf6trthrZv2ShB07VHTBozK4RCV2mpanmkx96T9pLJEHlQ6rv+8sLLdmshmHhgc65toZNP77h80ljguIB0+/9U3vOWg2dOhHZ+QUOUsRJ6CSbs82bahbd9NUrhvftH/jlo8YfOf3Oe5av3dTSETqx73Yh1TnnnBPnrLOhOOechvv+WYSiVpx1YZjNNGzZ/Ot77jhy2pTiVFFJn+pn/vla1okTZ8Wq5KOXRMJse2PNmoW/+tn0qRPGFqXSFf0G/c/nv75qw5b2MGOdkwOg6g404gHgblCCCK1bPn/WzLk5FSXvuCNPOHLaxJRHoO42qcJLBsOqxpSki4PKiimTxhvSzqku9EbDSlRl4/rVN9/07Ycfea4tK+8978NXX/O5qdPGFSXYpwNlu2ZVbdhc09DaISZR2aeiT2nJPh9KMBzEtTU3z3plxj133/PyKzO3NrSpM4HvJHLBizaLVe0aAvrJon6DR33oso8eOm3S7bff9afHnvndfffU1NTd9sMbRgzum+T9MEg9yImlaveoyvpVa9bVNlq1MMmqgVWV5WkQQ7WwPRGT8ZNHnnjGD35UZIpKpk4YZZg6fZp6VbtTBcEB3NKw+Z477/rjw8+0hN7ZF1x2y/Vfq64eTsb5EAJvN0nXYwGH9uyjt17M6C9nM489/NsH/vIcpftecdUXLjjn2H11fgVBFSrZbNvyJYv++MCDf3rkz2vWrs9aJ+QRAMpp50ZArAakXe1BCWo4KOozZdrxN39vmOeZhx5+5u9P/fn7Qwdf/7XPDetfGs1/Ud4zr1e1n7dGLFW7gaAE6mgLM5KfnHEgUcPb6Q8RGZMcMmrsZSPHRP/ML+v0umYmqgYuZ93jf7j/d7//Y2vGDhtz9HXXfXlM9TDj0YHUqITIkGY2rFo0c8ZM6jPk7C0Z2jeRA6rRoqvYui21Tz/x55/c9eulK1cnS4sPOebE2nlvrG5pVRBgFUwqICH1lLaFghPgQRWkJjVg4LBvf/Oba5evffG1+Q/97heHTJx4+aXvL055BGfgx1IVEU+r7w6N/DmEoKRgkeVrVtVtbSIJHe2g9qiAd6O47wRMEKLNaxbfc8+9G7a0F5cM/PqNNxw+boiYXU9ZU/c/e/jRvkOjCKR9AgEgFbjwh9/77nVfuXHx6vWnn3/Zb+5/9P77773kg+8NWAg2H0Kw60IRw08NGTnhq1+4qn9pItu4+c677nxj4cpQAIqch+NOiliq9gACgZPJhJ+PmNE3Z7/89NPPtli1O+mYvVunIosil2m/5/bb3ly2HoaPPvm955w61WN/Z40p8gvNz3CLRIsMXR8VfhodsK/Lu+1x7FsfQiIG0cTJk6unHf2ju385ffp3Tzlm6tCyAUcdNdUzBiRQf9fFYiIGiJhM4oQzz/yvU49NeFiz7M0Hfv9Ia0Y0CuKKo8eBWKp2jwLENG7cmBFVVawskGzD+p/cedfDT//D2Xe7cO8SlmTzqsV/e/rF9myYKq/4yCXn9y1OWWIjOx76icimTZvmz1uwaNGS5uZWgAuNm7a2tuXLVy6Yv3DNmnXOKe3IVj3wUCIoSI1/4cWX/v63v/nIf50xsCxBTDnfeMlA88Hqu74XAoghJEKqieK+l13x8SHFCcq2vfDs02vWbIQyoEruHbqnA5sDZ1rhwIWZBo6cfOG5p//gp7+xOQcnG5bNuf7LX7GhXnjOyX18A2ZHbN49WyoyUlT1nfEONxq++tLTq2qaRd24SVOnHDbJYwOoM8yd637RnhM5m23ZsuW3d//iwb8+tXFLXeDr8Sef+41vf3nEsCHqMrn2tpceefynv7lvRU1tmJFUWdFxp1/wjS9/acjAYqOW2Os809usVlIwg4TgGLJvfJaoU2m8VEmfISX5xBUAvMjnXwHNZ9/ZHfmH5uBXH3L4iOpBqxtXba5Z/ue//2vy2PM99oTiHWURS9XuIQBgU1R86Sc/+cKMV2bMWWxDgZMNK5d87arL53308s9+8QvD+/fzSA+EIN99FSa1K9FVlY7WJ556MROS4dSYiVMHDegP6hnlSFBnsxtXL7z2K1985rk3xOVy2dAJb2p8ZOzkSVd/5jJparjxa19/4K+PN3bkXDbnnFKNrFu3NUgmb77+i8U+7aP57+5l37enA7avq7dRYqoorzh02qRZ89e3tja9/Pe/tV7+fr+UWCmeVo+lak8ghobsVY2bePMt3/nSV741d/6STChw0lS/5b57f/n63AXfvP4bJxw+Lc0M0t308/3GnDlzHn/88bc/0VNWVvbRj360srJyZ3ehqrVrFs9fuiIUa1Il0448IhUYQAAm5JfvoSqSW7Lozeuu/dKM2StOOuuC9592+P333Tvz9aXZjpY16zc1bKm57atfe/ipf0w47sQPnPWextq1v/7t/Ws3bsm11P/1sUc+95nLRw+u3IdSdXAEuhL5Xurkk0588I8vtDS3rFs6b21tfVlZP+O6HB7+o4mlajdEG7l4CmtSRx5/yh23/+DG73x35iuvNbfnnFBbc9O/Xnz6mrr6G2/6zlknH1OcTr0rOuWcW7Bgwa233hqG4ds81dChQ88555yKioqdS5WsWL5kTc0WqA1K+40dU+1zfpRGKkIgMBTqwjfn/HvB4rXvP/8TX//254dV+uuXzp01d4mKtDTX3TV9+mN//8d7L7nsi9dcM3pQZS5T39pQd8d9D2g2zLbWN7Z3bFPcfZHqXaH7yaTatyh5Y8ZPqShJbmhsbarbtHD1+kljB5o40SEQS9UeoVAjSmQQlBx+zIk/ueunP/vJT37/wB+2NDY7cc6aFW/OuvoLV0//wW3nnvGeVCqIcoIi381EFaIKVQITRzlWNPqlgphAnJ/n2JF/twKk+TmP7bus5i9DUFVrrbVvd6q/KwZoxzUBEpXVq9e1ZRyDy/tX9a8sN4SuRIJdR3qed8YZ77NcdsLpZ1b1LdNcs1EHdSTmpeeeSnTUnXrRx2/41lcGV5QTBRTIsH4VCUgHOSbDxtPovnc/oIqOE0hP56PoEXTdSmTvkTrFDu5Ou5IgEu0bddx7SAHmPn0HD+jfZ8G6+myYm7No6UWnH0McT6sjlqrdQ4AhAxPlITCOEsNGjfv6DTcedeyx37nh+iWr1guF7HTz6hU33HzryOrRh0we4cFjClk8qBHKdLS31WzYuqlua0XloGEjhqV8ctlsS92mdRvr2sUMGjKsf/++CeN8VodEj+eh4iDsjCM40qCwWJG7l5JGKZOLioqqqqrevlQNGjRo++QtqqBoHUqMumzt6hUioUVQNWJwRXHap655asP5KjNAqmJA1Yc+/EGPfIJkcx2b16+G+lZ0S+3mE0488Stfu3ZA375EoqQUim8CIFDiRHJARbrIRMFIkF14WimU1Kl6oba1b2rOEEcKtM0eVILabK61qbUjB/Vsrr1xw4bamgQHhWchqIXnaZaSpRVlJWTUvDO5W7vDqspIFJWU9+sLXmqdWzl/dQ6a2KO5+d5PLFV7R9SHS8vLzz3/v4aPqL7uS196afYblshZu2rem/f/8U/jx1zjJ5nAyqri6jbX3f79Wx/+06ObG1vKhw6ffsf/nXNk/0f/+Ocf3/HjJes2W+VRkw7/4Z0/O27KcInyDfcw9cm1t7fkFASBZrp9Ek0KAeKnShL+e9/73lNOOeXtrwASUVFR0S6yUyps7brNpMyq/SrK0omdug4RwbAhVYI01te9Pm9paEVFBw0ZdvVXvzZqSD8PjhQgEYcNtRuy1hEnKgdWlxalQFEM4a4GbQoATKrS1nrNFZ94Y/1G6WEuKRMgEq5esyoMM9qw9c5br3/kl9O7Z6Bmo07gG8NHn3HhD2/8YjLpvSvT2JEi+UFQWloKwIbh6pUrbRhi5zX8H0UsVXsHEQEMIj+ZPuyIo6ZPv+1jn7xi3pL1vuRcNvPKzFc31bWMHJxQIlLbsHn9V6/9xqzXF0475rjFr81asnLN0y+8UPNq40/ve+DQo4+tHr3l78+9tOT1WQ89+vejx/83JwKDbqa+qra1NN383ZvfmLdcNQfp4QuokXPjkEnH/O9XPz+of0Uymdxvdx1dkACxNtPS0KpKSlpSkg6CnTYhAhkyIKgNa9euW76hnl2WkqWnnXvBKccdnjCdozTVbFv90jXLRUMKUsefemw6kZ/+wk5Hvp1XiEZ5Em5Yv2bBguWu26oCEZgBhVMiKBGkbsuWpk0bXIGiKRmjTuF5fqLq0Dpx8m5NaRGzQNgwGwNVgtrQ7v8dRA4aYql6C1A+mZ3vj5l66GeuuOTab9zW1OEBWrtu0+b6lpED+yoxlNsymcaWjtum3z5lfNUt37xm4R+e+fc//vZq04bPffX6Cy76AOpXfuJjH3th9rI1azdqmNNEsH2LdBIuXjz/XzPniITa3cTIZxZVHWMG5nbmOL+P7zoaL4lGQysiiabhdv9NXTR/rlqr5A0eOvy8959VlDICQxAiJZX69asXrVgPNalU0ZFHH5LwWdVSFJWy826at7mIECQOOfpYb3D1doUhiCMOVy6cu6KmTf3E6LGTRw0pQUFtRVaVI+MZTJ1Ubbx3bbEtKnqUMKhrT6R3qSwHIrFU7Qi1osax9cQjhKDInPEBKfClZoJ6QfFpZ585+PZfNa/fBEW2Y+um5iZDoVMG+4OHjL7nF78sKSlu3rS0ZWujdbRw/qJvXP+tSz94fnEqaM6VVqTLmDG4X0p838D1mM8lQrqo8ru33N7c0gIhEPVQKwUBlC4r719Rup8rJJr2FSJL6rGyAKQwZHY5A60CCAS51jfnvNkhcETDxkw7fFI1qSFypCywZGnO7Nn19W2qXnHlgInVwz0ioqhl7mo8S8hnLUwkK6///o9y1hXMlxMhii83Ntd0x3ev+/G9j6Gs4vLPfO1/LjqWugk7EVRBzDB+MpXwt+3v89aqSjXyY89nf9ljSEmJmAwAARnAV3X5JejYroqlaqcIudAJASADIvAOWjCBqP/Agf369l26YbMTZS+RSgagvJuyZ/zKyr7Q3JbaTQuXrjCBf+IpZ1/yoQtT6QSRttRvXrWuhjg5YcxY4+XzP/YohDH+2HET8lLZfaI3vwCvQkS834NRugoQJTBRhapEHlS77kUKSGtT/eKlK0In7KcmT5ncp7wUkHwCHVW1mX++8kpLa4Y86j9k5ID+ffY2HwWzV1xa1uOXpAKowHNZTiWTTBDiRKqooqKCd17mfeNrkn9eb8EmitLD5BHKz0jGxFK1YxQMDWtXL//X60sTiaLjTzm5rNhn0u3fblFvE1GFAuQlSkvSSUWUmSjve0BiV69csW5rU1BUeenHLx3St4xIBLJi4YKNDY1FfQYdOmkSM3YchKGi6pzj/CYy24yGaP0LRKEgAaPvyLiFACLyisuKiRSExqaW3K7WHImgENRtrFm4bJU4NcmSiRPHJv0gSvLL5KDU3rJ50fLVYU69dPKI404pTr2VWeRoo6qehUVPs6bTU2E/73X2FtVFARXrxFoClEgTnnl3HIoPRGKp2gGigIZP/fmRr938k4rKqj8+/ljJ2IE7tMMVqK+rb2xsUFFiM3BoVWVFsRIYLu+ko2rD7LxFi9tDDBg5Ztph4zxAxFm412a+urWpbegho0ZW9TPkdXY1Kjy7DdtfnvGP2poWB+H8yn3nhyQkHnm2tGLkySceUVa03Y4P+xDq2iXaGPb7D+5HTCS8taGpI5Pb2ZcUSqpwsmrp4o11TQoqKe8/fMRgn0w0PopmujZvWr90ZY2oporKTzz+qKT/Frvmdn2a87szFNao5uX2rV1iD3lru/spKaA2l2lpaiRV45t+w4cmjb//pfXgIJaqHUJhLjPn37NbWlu8oH1zXdNEGgwVheneAtU5O2PmzC1btgIIEsGxJxzXt7IM5AgW8KLplPa2lrnzljnI5GnTBlZWOjgmznW0L120Imd12OjxfcsTUAZCJSrcfU+hHR0tP/rRD5577g2nAg27va8JpAnxwiOO/68ph9yxf6WqsGqIh1QNjXKgrl+3vrWtbRddSVWcc2/Mnh0qQVE9atzQoYPyzu3ihB2Tv2Ll8ua2nGhY0XfImOqBBioiNrTG85gPvnQ6qtrW1ubcdn6btFvXUgLQ3t7e2NCgAHtm3KSJBvSWBpK9kFiqdgCTdjQ2rli3KRRpbqt9+OE/HX34dZzIL61HIiIKZ+3WmlX3/fyBpkxO2Bs0dsr57zu53AQMBwQCsCUx2rhpzcYNqxNBefXEicUBGxUl29a4bs7KFfCLTjz+SPZ9UmspVEkW+kUR4Jng7DPPG1U9WYR6DBCFwEpCPLh6dFEqsZ+rpPPaZOAlBlQPT7LnNGyt2VC7pSk3RgII2COoaqEHpjpopq3hjXmLQ2H2TNXokcMqSoidkFEihUca1i5aImFGiCr7l5ZXVEByba2N9//6r+OPPObwo8anjb8v0kXQtuk2kre/3VnnuURVopG+wIhGu9Xk1tduIEfCbDgHDXOgFABygNFO23xHkQcqjlvq1tZubVGISaYPrR6uxloi1oNPsvc5sVTtAJKwblPNpk1b2CFszzzxp9+956Qj3nfOmakgb9mTis10LFm08LYbrv/nq3NDR6UDBn75i1cfMXmsR12OzgpSVbt21aq16zclS/ofdehkQwRiBtXXrtva2BSky8eMGh7Y7Ov/nlUydMKoYd0Vhyid7nPllZ8hZt2ubQuBo7x0bHzzzu3FRESjR40Z0q986bqGjtaGpStWn3rsVH/HezGTqjbXb162ep2qshdMnDAmlUp09vMot6o0NtQ5gZImDPkiDfV1d931/Ttuv//IMz/8y599r6jPgegA2TlryNQpggyQOqhtb6x/fe5yJ47AmWzr7NmzDz9sUqIowVBGV1ApFLydYBEhXDp3ydbGZiWUlVZMGjOcWFj9eAAYS9WOsDHG2gAAIABJREFUEWDliiWb6uoZooqtNau/+Pmr/3XxxWefddKQIUM8wxs3rH/h+WcfvP/+mg2bMtYWDx5x9bVfvfi/3luSMp35AIhAYAcXLlu8pL4lU1bd95AxVcSAsijVb9qYc9YYzrRu+dtTr3/nW3ef9/Evf/XqDyglC96fROz77IN34AmoAMGpyDucvZ2Jhw8fN2XsiJUbGsNc8xtz3mj74PtTic6U4YUvfwLUbVq7fPmaGoC9ZNGUSWMCzwgRb1skIPIMMwBd+Obr373+m01bVj737AvDxh/5pS9cUdGH1RygcSWqQmpUVTWsr29oaWtrbWles2LZE489+rdnZlgVUrhc7o4f3tbeVHf6KScMHTywKJ0uLi0rK07lV5N7GEqqCDtm/HNWcyYHCgZXVY8YUmGIGfwfb1EhlqodY53WN9QnikvSGZcRdTm7uWbNz3/64wd+/+sgMEyUzWZbWltcaIN0yanHn3z5FVeeedoJZUUJIEot19Wy1NrMG6/PzloaVDVyUEVxfpcl8fr1G1iUSG7auO6az/xPOuWdcdaHP/LhM3za7nGQKJTA28tRfkWfGHhn97EiSpX0O+20U595eU4mm1k8f+7GrXWVQ/upyvZz22GYW/Tm6+05p6Dyiv7VVUOZSaJ4NzIKcoRTTj/zrt893tSRa66v+/1v7vWTySOOP+PG73zrqCmTA3L67sQO755oQE6wmWzTlVdeMWfugjAMsx0dbS1N2RDCYEdQati47ifTb7vv53cFvp9IJa78wnWfu+LjCRLkg6gK1klUW+q3zn5jXjZnk+nKI085pbg0weIpyY5t1v8wYqnaAZ4fnHHuh4ZOOHbdmrVLVqxYvnRZR1tra1tbRyaXy+WIKAgS5X36jBs37vjjT5g8derQwQMC4xXsRZJHwVC/etIxHwyGHXXSGcWJIN+RiarGHfGpT392xqxXPT990smnf+CC8wYO6MOQnpLTmbRgh6uPGu3cvON8DMhn5gZU88F0BIK6aAgbfSm/pqh75/boODjx9FMG//RXzTV1y+bNmzNv0bjBlQmGo+4DUYVhv6h/9cWXXKLgqlETqwb04c58mQRiGBCNO/zkb3zrW488+mRLW0dxWfmRx554/vnnjakeGpjg7YiwRmqiogKjOWsCH8ZHSKL7ouPnH4sosZeaOnVaUXG55FdwFcSKyMGVGaL51RDyfG/UsMEc5UDb5omvnUFEdtn8uSvX16iicuCQc99/lu95pPG0ep7tvFFiOonSqjhnwzDXkcm0t7dlM9loQ+VkMllWWlZcUpxI+ES0w3nfqGKdc1FuFs/zgiCIjowS4HV0dLS2tnrGLy4u9XxjTNRq90E3UkjUCQQKjfK6QCP7jJSYjTGd5k/kZkh7dWWrzjZt/Nxn/vuhR2ZkwGdfdPndd90ysCQpxB51W8EUcWEYRsthhgPP84zpNpwRESLKZdrq6uraM7ni0rLiknwI9NuZTVeoQlkJam2Y/dOvf/T7Zxckg6LLrvjMuScdAt5nb+joUWazWefcbme+o6bS1Qy2FRYApL1xyzev/p97//BsTs25l17+4x/d2q8k4YMVB0u++f1LLFU7JUrblA+7yP8kdAZmEUFFQbqz/Wm68p0XOigWSlWhA86+3uTGqaq1YTaTaW9rqa9vqK3dvKWuIZvNJtNFgwcPHjxkWHlFZTqVDIwQBMraM+HwrhDJsvDr/37m4x+5avG6jZV9h97+24fPP21CgFRhH1T0CATK32/hhbpqKdLRTl9tfvuO4/kziwXE5do6kPJgxSsq8vZlVUdXiQR3D8tckAJfoxgaQOHsjKcfuuzyz9bUt/QdPvHuu39xzmlH+BAiTwgcDwDjAeAu6OpU+Y1Hu9brty3c7yqlUY+2W9iIt3up7uM4L5fL1NfXP/vc8y++9OLcufNWr17rLKxYRegcGc/vN2DQmWe/79NXXTVyxLCEgeG9s+YYHoxMnnLqxy4///s/+nXL1g033fDtqWPurh46KMnbhoDUM9h4u+FtV7XkB6XIO23ui6ogIoVjYwAPqaAY2jlFvy+nvqLym71ZgS1oCZ2ByTZbv2nD9B/+pKap1UsVX/apq046ekpABJB0ObLGaMy7jYiIOFWnavfF2dzMF544bNLoPmUpNmDfGzi06sOXfOzKT1/1kUsurBo6yDMM9kyy+LDjTp4xd2nWiapz6vbiGs6J5iQMt6xf+ImLzzKBX5RIf+RT39zQ0NKVRHRHWFWnusMDpPPPjj9+a4haUZHoquJEVNXJvrzC20OsiHUubK2r/er/XFoSeMZPnPGhy+etqbHWiTinzonu3aPpvcRS1dtwzj37h5/1K00jgXSiz0nnffCF2W80NjdlM+0tzS2vzXjuPUdNSXuGiYJU8UVXfmNzS8feKlXXhawNF86f/b4zT0hykE73vfRTn1+8dmMuk1XbYV3WSdzHeiKiIs45G7pcKKHNddSsXPy5T1xWUeSzHxx32tmvLVzWHoZO9sFLq5cRS1VvQ5x7/qE7+5YG5POhR549a+HKtlwuDDvUhdY6m21+4cmHx1cNMiBmv3TolPmrN4izb1WqbDbbsWzRnAvPOaUinU4k09NOOvnhZ2dubGi22Xa1cX/riYgVcRKGLpttbtj47DN/Pu3kY9KpZFBUevZ/fXDukuWtmWzO5WKV3554rqoXwl6f/gOHlVj9xKf/e/yooSmfCB5ADFYOph1xxJTx1Ss3bHFOwraGppZ2pb1KrNR5FWZVNRRUV4/7+X33PvLHB++649eL//3qZz928SEnnvmVL3/hlMMmvnNO9AcJRAwIKDf3zX9Nn/7jF/85q76xvXzAiM9d8+ULL3z/kH7lKZ8pSlsR051YqnobRHT4iac99PChjnXAkEEpjwncKUSqavwgKC8JlAmi7DpC6UoCt9fdI5oNNwGX9xt46cevOurYkx97/KkZzz1Tu26FE9on/ku9DRUhAjgIEqvWbxpUNe6Sj532gfM/MG782HRRwpASdcXrxHQjdlbohaiESr6DEkKDoLPZK6Bw0tZU++lLL3ro2TdEtbx80JMzZxwxZojp9EvcexxAUBaEAslmw7qaDZsbWkaOmVBWXBRvYd4TtUKeOJdrb120bGVxeeXggQOLklGyWU+JqFu0Q8w2YquqF0LsR5tVAF27SOUdvESxfvWixStrxcGk/InTjh9S2UeJurxG9x4DAASGz4CXTKSrxw4dEXmTxZmWtoO8yGcsWVQy7bBDC9ysEu9wLOdBRyxVvZ68n6EQGJprb3jwvvtWbNii5KVL+19+5cf7l6VY1dE+awpxupLd0uWy99aS8P1nEktVb0dVFMKkLhTJ/ePpJ/7v4aebO1wyVXzBBy8556wTmJRA+zYgNu5+u2aHjsExuyaeS/iPgKFGw7mv/uPGG2+p3dLOiaIzzr/o29d+vl8ROWJVMm95/BcT844QW1W9EM1v1KxRMAs560JZtmz+l7503etLllmv9NjTzvvWN78xdHCpR+kDNclKTEw3YqnqhUR5EqJYYRKxIhtXzv/a56595fVFjkuPPuXM2777zYkjB6nx4qncmIOFeADYK1EBHEgU1tm1SxZ85ZprX5jxakhFh5909m3fu2nKhBFBYMxb8PuMiXmXiK2qXokCgBO1mbXLF17/rW8/9vy/hbwjTzz1B7fddOjE4YHPBGKV2KaKOViIrareCUEJbmvNmlu+c8Nf//aUM2b0UWd9f/r3jpo0yA88VmUVS16nqsXmVcyBTixVvZCcQJ20NGy6/babH//rcx1aNPrQY3/045uPmDzC99M+oERWITaXzWTanUJDi1iwYg5oYqnqhXgiuVzuwV/8+Dd/fKwhR8PHHf796becdOjoAD6pExAUHHbM+ddLt99+54szZwvA+zS3X0zMPieWql4Iqc6Z8eQP7vrl5ub2waPHfOd/bzjpiAmGwLAQif5sqln/g1u/d/PN35vx73kCpjgUNObAJp5W722oasPGVTfe8t11W1vgMGLksPqG1Y/8fg2zOhYSQ9CGuq0z/vHiM8//M5SiVFl/UfUgbzVcOSbmnSCWqt6B5vdzVmdt9qnHH5z12vIwdKQ866UX587+FysRRKJtFlStDTOZTBi6IE1FRUnHDJdVmNgbNOaAJZaqXoWqtre1/vXJpzKZMNoyJtvRnmlv28nhRKz9y4ujrWLe4aLGxOwVsVT1GqK91YlgqkZOPOb4lJOQ1FdyO52GIgpSRYP7lBgA5MUGVcyBTJxar3cQeUeRiiicy2ZzxARHGoBC2n5/+eg7qkrMXhB4SpB9lwYmJmbfE0tV70Aik0pFAQc1zjiGsvrKdmcapKoCJVFi0nhfzJgDm1iqYmJiDgLiF2lMTMxBQCxVMTExBwGxVMXExBwExFIVExNzEBBLVUxMzEFALFUxMTEHAbFUxcTEHATEUhUTE3MQEEtVTEzMQUAsVTExMQcBsVTFxMQcBMRSFRMTcxDwzkuVdP4UwAGqUIXm/y4g+nf+Z5QEQFV3uKuKQqBQRH+04Aw9DlNI1+VURbb9c7sDkc+SAlWFaFdBo9JAAdlxYXaERmWMzpy/5LY/2x8s0HzZ8lcX7TqNqkLdbi69XW0Wnr3rVNGlIFAI3HYHRgVRAaAqkG038JZRKNwO73r7UgoE+fovaCT5R7bD70hXHXU91ajeFCL5NlL4xGWHBex6zgJ0PeXoi9GvBdu3Q4murBBBj2Ys28q8y9vuLKFqdOPQbaXdTVWpqoiKqOv5SVd9dJ6t85POtrx9NzlQecdTFImIMtix+tEewKQeGI4cEwim60CFZecrCUCksOQ88ZxxpIa7Z4FThAIlDRwpCxFBSQFSCglB12GWnMKyJkhVlQhKxKRQFpAWqraDZfVZVRUkTExQVcAZcUBCCGAIiadEO2juO7pr5iiNBZQckQLGAUagYFeYpMVBVJk1SukCVYAIgBqBUmf3AYkRr+DSGlWJKDlAWBKOVeCMEoOICupLAZJ80hiQKgEEBzYZULpw0xpRJVio5yjHjsAGBAjUWIK/x8+7kKxKguAcG1DWILGz4xwciwcwVIQdlFi8fJmMAAYERwqoKXhqqjnSBFEkURya0KgfVYs4AyMWAlUDUupQTRM5CBN326pHEeUjFIiJziNGGQDEgY2wGAvxWSFGCi7NRgVCBFbuZgAoQoFHQPRAuj217lDIAKyvBPWUFA7RXZMIS0Ehu0k9wZFLEIhUIVzQ3kGqQjkHBXkM6kCYkISvgMkoCJrMl52ksN8dsLzjSWBCWGNDDg1SrFYpZPUY7ACiqDfkUXGk5NiCnIIg7IkPJuGQu3cVUSEVYRaIhfOViFjg+aIoVDUNRYnARBlLvkXoacAwBKDH0xIJmVmdwobEBmqUyZHzQgH7GgAqcCGFSd1pfytESaAeKHRgAA65hJCwr0qeCrhQqhTqCKrkBE7ARgMGEwmUFQpSqCU4ILnt/LBKQmDAI2GKRJZVKQSIKCg4vzOgSKcECmQVAg2MKEz3WoVE0umJWMqSBkYDYoUS+C1lDFXnICy+sGUQ0U67h4UFiNUoCUFIjYAcSYhsALAaIqfwCH63QYETa5xBqEohBQaOYExolDUkDUTF5JTIOAOEOZPyFJT/r6CM6hSssJYcYEg9R84HjPXAzrECjiCkQeH3hIRgSJXgAEJhLkOH0IhCDEILE2hhJXe3vySMno1Rnygy3Y3ACuV8TWIHRK8dIUAp2h3NmgKtEoSqQuqxGpBF6DnfCgvDkAIUmWBEoIMiq+I7LVVWrUa53zhLqsYFIGViAoO48P1vBUpWELJz1jjflorf7tki5g5wsvAlI+qEiK0VhVKGEABkOBDH3XqfQ0gArG9dzgirU8MkCTHWU58L9mtRCyURhIAoh5CEUV+9qH+rkoOYHGehzCRdLa5H9+1eraHCMBl1HrFVWHYJhlHDCvK79RUIsqpGhEEZQIgCgMEgqBOoKJFE2l7wJVKokDMwRjyjbI0A6okhNZEad9aBZTWqCJFzFJJGRoX1XYnndeu1gpzCU7RZWwKTFeSYyEhCyfg9LLU9Iyc50aySMaqGEoZ3mvDPug4CLDkPSRCEhZ3nOEcCVmJKgDsYBkgUFjgnYISUH6s6FkMeiJIKOO0QkUDYeqFKWsl4FJq8VlJhTkEnEBITiuWsI6cEH6moPlU0R22+pBjqmLhg/OjQkVDPaCAwloxf2JIthLNCqqIMdd0Mrh537oFgtY2RDoiFmFVELGCVzY6OVxCxKshBiRAQEqbw/KJKWZCoGBHNeq0izqkow8DzNeFrguAJUcAHwZz1O62mAvVCs4U3/qXuZ3WJjUW27LSyD453RxAT2Jlu5RFf8Jf2X690cxl0TvGnR7kxluHD77GxilIIGAGe7rh/oc60ikO8Y09Nf8jzAlNgfwmrEgi6Iaj5w9bbO4L2ifbo9xdfZo14Lii8sjOh1fCZ1t8vwmtKdridcF7ZJ1JSLiRQQ8hmpf3p1v9bRAv8/BREvhVRN/nY1rQ8Dcby1DNTl+W49fGm327UpZ5LnFt++fBwkviCgkJaOM/6HZyZlXv+tfBxa+hM+shhwYkZ6vCsmWdfmZF9ssnbnHB+ZAZGV2GQkgqQoKI+yf7j5dDhOqEfhlkmGOcX3Bsrk5LAhty2KrvoqbY/ZvyOAbbovPJr+tOQ7olADQEc8maz7smmezfzhqFu5Pll/52SvtiJyuyaGlnzl5ZfZKmtj+n7gfQnB6Bq+2NUNSfZP7bctVk2kGc+mvpiHxrkOGSHZ5ofnE8zExKcXvKpiZjMTI6kcABo0EZhcrZ7flbmSaFwgn/Me/hCYqck9XbDQ613CjKhF6Zsyekll060h0sgjozX/SUjagXh33L3L3avCchTOSN5ySHeCUY1C/do/T01Zp1SVuEVSpUXBkEy0S8YNpqmjvYn+DpAVSO1smwt5WZ3PD/DPgYw67Z20kN6FEywonpK6uNH0AlhkEna4B/tf51FT3vKBNrWopQicwhEZUgMDMZX8ZQR3tgylKPAqnIsrMaqXUvLFthZL2f/vsmuauWtRBpQqj9GHGVOO9ycMtybGCB94G9Y+05LlUcGvnS4xpnJP69Lr0q41MrWlTcm705yn0AoPy4BQYlJQ3aLzdyXkr/3NX0cvZ94gg9Bz3E1MZLkNGsy82jW8+mHWML5bsZQmjhOJwiVkoqQAXIG7MMotFW3PJd6oC3ZnutoPsO/KIliNj2ekzRIzZPBfavMmzmYilzlBD1ukjncaCBGIMmMaZrjzZyZeMwVzlWRgSDHuXQ2nUt0sG7rRYFLu5y+Ty/NmKa5+Ofs0ifKsv1O1vfBCHfffc8QOR8issq88Yz3ALM/3k4+xDsuoIBMblNu7d+DPzSlagNlB2X1o7GrIyE4owLHZLw0pcszw65L3DFSD/GkpFB/SBkAkcm6zEP681dKH1PuYJscmzmkLHWxp0lfLRAoqRJDFSawqH8p/Zdas3xUZuoZ8uFiNm/BpALQRnUvFD3UQXVFNlUvWz9jvhdoIpEfjbISSJmgWW6Z4z03Jz2jX2bYBfSpSjMoAZPx2ub4zz+f+lMyDKbp6YRJQqZnO6CkBrKhY/lz6Qc6vEzQFpxKFxmQwtvKm54t+nM71wtrSZis0sGjgqkJBKCwRxcgeM2ofdTetbxsiXEuqaUT7VFTzPEEY5CZHbwwP/EvMVkwoETw/n97Zx7lV3Hd+e+9VfXeb+lVu5DQgkALYAECxGJW2xhjA8Y2YBxjx3YyyZg4mzNJvIyPJ3Oyz2SSzMRLMngb44WYxTZgsy9G7AIhAQIkEGhfaKnVy295r6runT9eS+oWAgOxQX3O+5zfOX1O/7rfWnWr6tb33qtKCgGHNJrAtuari3ad8rs9X56No2x0wQZmUsGzdsUdydWBpBa537Ur0QVisDdjGklU4kpr8jE4S9yJFa1ldniVe/Cu9OqM2OTG2JY3HlI1Ix64QERMJglI0HF04/Qrqn8/GTOTCHHMQqpo0fBKWfZ/si/uTjbnpuGTCCYWEpGtvHW1PnBt+Mr746cvTH6rk1OROhEn8KA35ov89fJWrFEJShrIB8pbNl9du+vn/qb3ug84mrCvC9DIoBMpesqJnJBgzMjysoMCEUEQcpbttPHbQ1/+Yv3KCVoREtWqkQQ8sj+iEE8+kI8Iipcv3QDRJ+JDO8P2zLY9qGHNivxniypLjIpRElIlrcTunvyQ0c61DNm26maOqVie2D7EjcyVCAALVyXxBJUuoTxQFuAVeqCRbOTOhaInb2lky4wAIRfZK5ok0pXNmIxJrJZhIinUCEXPYSAMtt1Lg26gaYf+R+vPPlP9q2PtKRjtwOZMwVDdrM8875d7O4yooOzWeMNx4YMJqxRrCuzx81HhGwue8wCvkP/A6JsH8i2Te5OtatzzJP/ilPBupCowPNZpE+FzziKF4hEVtb+EYqA80MhOH/YWPxz75AQxUO7ZRwrY056EfCSfmZYSGjY82vjFuzuvgDog7rdFQNTcLE/3pzujxmByG73sGY0iUeBMuMXiehpTEzNiqgDJjBFqDbn+Ibt7ecddNCh/0PlPU3kOCxHTnqvykVRl6qxGt1UEVGAGaVRz9pQaZB2hq25qrFxMvIRCQB7hZ+hRPXmHkqo4cABUNcYY+8zOlu3v5/4HKzc1ssE/r351Os0WKBME2RPZsq+E/7ql9owV25vPmYMjpsTpanQX7djqn9xY3brT9l2f/b00skurf5hyMMrC9uBcDb7l7jRt28Hr8r9dqPOPwlJQQiA68Cb+azscNDJnNLym+sgt+VUfSj+Thopa/7ochy0avjX/4ZDt745TLdl+t/2e9tXv0f80TWcSEUg6pfeTHX/2cflMPmpk75PNf5v97ktue1fe9V+rV/bqVOw1g8odWneaDlEQ3rtafA13MwajJAbRaTqfTvhM5a+sOoJRUiE2KiRxR7JjdXvZ9fxvm+3GTbzq7njd4W5RN6aOOghBua3DK8ODu9LNDmaGn78hXbPKLd9Ma+fjSKWEKEB/HVtCSqRK2qSwo7L2R81/PCw9alKcycU+5K94AbLv0akCGo0QSIyaCF1tV2wJa2a7xQZ2v/MG0P3xjoYbYOQySu9AgBApQBQrsff86ifPsBcQDCkDmkm2K259Jjx8s/xgp93yeMfdt4cffsT+kRh2o0yhgfmg+eg57uPKeUSN4Ue/YCVOhDUJPZjCY/ccqr724fSKk/ScRJ03ETDFPqCobJIXlmc33c7X97sta91Dj2d3T04+qnACHaAdN+K72yrrWfkd8eLz0k/NpNmdscdzyDjbqptv9t+5m36yy710i3zvdHrfbDqKQf+RsejXyltsqureqDX9yebrml+fUp85BYcSDIPfuLUSx2hbrjQ0/Fj+9QgsOU7eYZEDhYzhl6OqG3XtumRlYH9UOGUGzfpZ+O6GdOPy/M5zkw8zW4Z1Wp2GOeAxIhoDJOIASiWdrQt7aMreryIzqSrEqgqFsbbqQBe1/8bUyO8IUDCAnjBpIs1MaMRjJWAiDxN6ddbc6qLEV/+3+XOorswfGE76u2jK3ltXOFLqo23L5d6cs0nZjHfwpVeFvxmi/jvy7x2afqGqqZKwur1FTAm/TBH02ojEpNEooFWh1sr0wZ/qd36Dfr+iPUTy2gs7v4bXuG+yUmiKhMQoWbH10Bkk7E52P+Jvn2kXGO1Q1r2nVmg/dj6c3xcq7a7Q0zCDo26bGJFghRig6fnsWW4BqyMQQ4WonR65JD+9kyd+Q/5bMPljYdlF6e9WNNFRu4EEniCHzeS5gApVrYSxugYlWE+RC53KqLs0cN06pdtMqUlFCYUER1VA6LGHzpeFuYSb9Mqg+oD/+enpB6raGyi+FDevDY+30+a81qJPpF+cyocxqTIlamugLnRPc19sNVq31763I9l4b+PaQzoXOjiFHJzK8Lfymgjo5inW173xK+xdDzR/lqO5t6TdGzsmE1lJZmBGcNlLlb7rh/+l3+wORICB/vKbLUSfz7YeG3D9RLTQnHCmuThFR8vwiuyeXNuFe8gbH4wIE2PfJzARBJQbqLAb/ZVTMUqeDJT5NVzGyFRsv1tTYWWo9YisYDCBWZnBVmHEkVRJqAJ3Cp/bm01tuuaQ29knO8fcIIIiW99a9aJ5PGWex8edUb2wN0wQmz8Uf9of+lnHdPVfIQJH0FTQJZPrvifn/Mb4fzfmK3MeKPom9ogS/8NTrJftlUEZaqPtxcSeOMGrXykPqmYcxwhBBXGdf6Rft1lNZsTFNnaMfEEonj/UKbnIIYElGAIxMcCMaDRlVz3avL2inQ32L9n1JkYhoVEtmYAEmTArkkLTQKPwbIXgyIBYxnbMphmybAws1O6Z8AqgIKllSZ2nHMNnO+1om3yDe8ZzmyMiqM9vUdeqhvRwPbLbTCdmJjBFIhWOiXZOkN531i7qySYlMGvpqQz5wawHfbNNVfHeCm0vK09rz7pMP5NIfdgO/BRfX+sf9ZJ55KogLXpMBPiATp39kJHRP9Skfl7+G7Oa8wV+eXrvrdk3c+QSlTQW+m8Q73c8hQpC1BBUdmPHTfLvNuQT/OSlfPZMM2tKWJjEuNzcswVrhJqAt+oYgcWA7N6PE4qUsJIHGfWjv1JYZU0Aooxe1QwTBFAqFi1ji7NHUqMiRCA2I+akEDOLQoVVOLAhkpqhKktMAqyaKO3CBBcHYYnD1FiGG1o0bLV+vr28FxNP0QvTYPrszifoXo8sBx+oxRa/eeMNxgmxIILf5k84SS6oiBtOtl+Z/81wbBZqclGISuGbG3lBr8tijYwBOiLeAIpFGxEzUm9ipDhB5xwRj3GqT+PRbfyioC3QWCgkkLclX+GXNSrbJmdzZsuCvYMbFbENRMKeI7FSoFCcRUgLfaYhbyKRRqvOqK2HJGdNNB1Rn0NBopAAk5M1ECv7RxwkUUBNaGRQ4Y0ClKBKmsZKEkjVBGIlUQ1QoRE5YDQEoxWjNaWAIpdOAAAgAElEQVQQ1ZISjE9FramKaiB+QdYMxQGJXqJRTVXZqEYjZKtH2BMuiZ/5bf2bi/n36r4ORDoop1RvfQyg0853JR85NjubNdmcrvu+/+cB2mUQheSNLToiCSuOwLGXuT/s8J2Bsxv0X9fI6sy2QK94QAKxMAuzxtX+ke3JmoxlAR03g+d30+Sz+FxSM5Rsu7V1dRBmBUhktC74TYERI9nIwlCOdQITuPA9ESKpEKwCys2nsgcHk6ZqUtWOXjNj9EGiJjt1x3NYFSlOCLPn8zGdOuFk+65a7PY2XxZ+OoS+VCD8axhcKfNMqmYSTfxN9yczWkd70seqD93c/naLhklFKEINyP/qTw2wKsHUND2t/j7S+rDte6jxQKRQBAZAyQZt0u7HcH9EPI7P6MXU/UIRSDUSBRNcdFALkCipQpWAyMo5Nx/X+3fxbotkMc6oaJ0o0thDBOOtRtXiCxLa92mZtkoiZEiJdUzryoxv2BApJwosVmEFVmCEuW3jEA2sxt27zXYrmO0PS5AClmBm8tGT4kzS9sbaM99t/9kqfWyXeUmRKw9HaigFRZwUpl3WecUH3ScW186kxAsZo+HX8fz/47zVFlSpYro/Uf3TQ+JsgTxplt2dXY2cEd7g8zKSODim5O184an5e4TD1tqmb7X+YkD69s1m9IDjNSvFFgYfjD8bdH210HGKPb8bvUnsOsddODlMzm14hO7YJltEoBIEUan9uq+PRgew0QECFV/1fyOxQkA0ZHa2dLCNoRzDGQ02aTijLJfGVnnm/vwnX+XPtWiwGuvHy5k9PLFYXxTHaHP2cH7LFvOi1cox8bQuMwFkDk+P6wmH5AhP8sPPygqJAvnVNwzSxAi5aIOhSXbmR9M/qYReT+EndOWTcZVGYYkgClIZWQr+SlEiqKaxsticOdXPCs4/orc2qIFiHqeI6p/yD7zonu4InWdWL62jut/0l0CsEqDRyCasWZetetE/8WL+1Pr8yefC2of93d/J/+EH4X84zWYNzTsvuTxBVaU2ekGgqm0/vNU/tUFWr9fVW+LqrWH11rB6i1+9xa/uy9dv8c9vi+tzNAONaf9WbI42pB0xlHF/wLBHI6fhtvb3xRdvyK66Pfw7cayG7lPtuVarRaOaRJPP4osq0t0iurXy479uv/+/D152VesfHsnv2xQ2tGVINQ+sqgnEGUmdVBmkrzFW7E3nLXarM4jVzaSFF+BT/8//tdjmtfRP8/m4o+jUN9pXKLIQoWI7L+/4k3VDTz/b8cQa9+Ay/5NzK5fX0X3A/ylebaAwxDuXy50AevychW6pISYKXTRjUbZku922021+Otw12V1Sk7qwvMlPL4Kh6gTDiM/QfX/Z/pRVS2JA4iEgaofmALYNub6BZHfFm0OGD3t358e6Q+/o7fgWDd6TfbfV0Z7UnvWO9FynKYG6dPo73Puv1ueGeffycOvbklNqmPwrv35CiEwRykrKdqk5++zsonvwo13J9h80/nZ6x98dioXEe3vKr9RWKSIsSEgrNZm4SJZskqc38lM7zcYu6VZEgslteKh5i0+bM8LbDtWFT+M+GiuGYDGp5CxmkAdvpP97g36D1ZESSHO0MpereBHp1PRTXZ87VBdZlcgy2lRFCt83/3yT/0ZmCGqshtGeOSI2oXpqfNfHO79QUTtaPygcfpp9/Z54fTS5ESU1AqMU235oh93e77ZnNqvmnfPjkqW197BYsl6JU2/PrXyq0W7f1PpWI9myq9K/nZY9qSs6Yr2WdUz2M46xJy+tfeAwWmC1RgQiURioOzj3AN8KU6V7/RBFYBtVqfusygXPNx67G9f1mZeuafzjzK4jO7XDIA0cI2nyyw19EaGMyHkMNSWk6mZgwQeTT/+z/GmTG9f5rx0Sj1jCZ+4JmBrzNoSUoIT8gfY9O91WGyun4p0TeQopRyNW3CnJeffJnZnK7dl1x7l3Vyll0Gt/ejQqJQErKRhURMbQy/sk75GemT1R9cUyr1jlBbLCfkfy4hazkWAZUAqkrARJg0QYNp157+L8tMsnfPZQWghV0UhKAiXGNv/81mSLUZlt5s+yi4iIo7FKxyQn3ZhNatnNT8WHhuSlKncaOAJD97i8C8fJy9VMrxklgYoYsR6pVBNTvbh6xbqhJ9fWVq6t3n9zuOZj5rMWCQFjw6tlxC0+sgIgIa8krLqfGFhJVEUISkXTshgJ5BYQGSgRCaNC6Sn23Dvjj3fy9idbD89IFyawgdGKg8/QSqvuGJxe51pk2qMJ2PsWCWoSQo64224XBsGREqCJVnMZyAylmkZ0PpU9uMidPomMimNDe9bppECDhjK7O7NEMBZeRxS5KGKewemQH1BxMFb3PQaN7NeY5WqNUDRCAvGcOoRYES/cocmkOOEsfPD8+hU9mGqMqhqlaMl26sRLk0/PlyX3h2tX6kO77M6GGRqw2QD3bU22PcnLf55dfZyeean9g5nusGrsFJvxgeMN33reklnVPqEnQViFwF006bzq5c82n3qhtuqxyr13tr9/UfIpiFOIgozYXxL7XQjdoQQVFFvLRJSenp7/ePvuZfamHWbjT7Ovz6nMnaSHqBVCHBOeriChTLPl4fa84hNNF3We5MUPapM0U+j89NiJ+dStyYYX89Xr5emJZoLRBBRe1wPUkVsmhRkR5RPvb6q0uJxRBoH23h8DkUmsmk4/uZumMjkAMbZ3YlfT7GpT6ER6sn/vO/jSRZ1Lu3ligoTVCAUos9pch++WHzdd08IejuMg1WFuAMowXTRhQpywy27dyhvv9TdeUL2iCkujXtboH3ujRl4XChrZUiAlwJPMosMvrl7xj/xHDbTuyf79GD7lWDnT7nkeowQWxXPjPaoCVdIDqYGLHBQEMCvtdW4UYa4jZpbEwixKl/aGiQO8/ReNn5yWXugwRdFeg5Xb+PlEOk+snM0EI0bNmFMUUtuoUkP12LB0Js9nsoUpVJYBP7g93/ScfXLAbLtJr8qzxm/WvtyFThoVs8Kwi3TpTJ0dxIAokT1Cz+I6xZK4heZYx4wRxQDtGbZoIg6rSoU5ktoGDQ7Ewdz0G5WefNK5uOQkd/4CPclRQjACIlGGCJOy1KXnZDpvkTlpGz2/3q9Z6x/bQM9u0w27eGeO4a3V9f3hmg2t9X9k/noeLXZilePBmWjhLV4AKqiYDlnU5vDi9yef+Eb40m7butZ/9Xg5aQYdaaMxlATeP5vSq0F7f1IH9b4//Z21zSc3JGsfd3felv3gUvfHgmLA3NfZWClqvsVseZruFxYSd9fQ9U/iTtUOUsqSRpILJYDGgeq2h/1ti/j4Tu0Ahzc2vyBlBQkVXWi/le7IlFNBQmR09IahBYlVn8RkAS39z+4vCYkqkY3r4tM3tf/tqfShhh3qbw301qd3x95EO3kkf4gQsUTs5K33hZ+0uO1QfcE/8cP230UmT3kS04B2VmkF1kHXf3/243P0YymlNHp98qujMMRODZC83Z7/8PBdy+o39KXrr8m+Mr02r5ur+/5u7xgEopG2sjfR0v4bqSwkRUoTBanZt/Iaa9QI1EtTF+PkZXTdhnTNVt3QI1Nybd6aX5+7xhHh1Dm0yCozQSAYHcROgHJUqsTq2XrZOyofoCIcVZUltlxox6FlesP3sv+5Ldl2S/zRwnzJu/Rjmu67TANzjl58TvJhgolMiRgdvdVDwkIBVNFEFaOMGKqxcon9g+P19IQ4GOO1vSredUP7qhdrKzNu75KhbjOxIs6ESjRRiBIElQSkRkXJMHQCJvRQz1H25AyX7eadA/rSqvayldntT8UHX3LDz1Yf+Hrjv/1559em6kwbzUFpqd5qUwUygsisJKbGnafZ9ywfvvOuzpsHTN83Wn//J/V/EPbe5JVQee2Prxh7iUhFTUzm8LGXVH7nf+NzLW7/PF5zpDuxikl+z0hdoECTB+9sXdef7mSNIo1l9R+xFo3f5IZTB0bGrA0Ky5u3vzO9dIFOJLGvnMjklS+PQAShGBFUI9N+r2Akq1xQL1rkQts7XwTIQBnKE8P0Q2gmowKygB7CM+dVDv+nxucfS+9e0XnvV4Y+97mOrxwqR6slIzZwIDViWiv9/YNmSGwm4h+t/nyFIjcSSZJoFWQ1EeSR9CVsfT4+dYw9bSTbi9I+fSa9dqnmgSmSmxCIxQUTUu24vPP312aPrkuefjK595bh715U/YTuHwReGCkq5JxSqAtefmSoUIjkIwKoiEwvOvy+QBwiUoVBejouuB8/bmF4NR4/Ih61nXas4vvTWD85npOiM5FEILS/SkaUyRCRUEW6LGoEW+hyQVxVVLj7XfLRqOFb4S+8yX4Rrj+9cnFtbFousd5yZwWQItPGaFNVqHvBwl5JaNRNKmgSTZnGh1Y0jUQCzMbshfaEv2h8alPthbvkmlY2fIX7y+lhLhkLCKJpcNaiIY/ciZkUpsa0abUuJjrwZEzupYmza/PODR/5hb/pG+0v7qru2Iy1G+PGqTQrNzE5KG3VW7wDSCOzqkiqVtIenfHxji/MaR/WdMPL3b23ta/P0TIKpdczqxpFJK1R7XTz0VPb59lot9m1Vw/8z1bcSCYf3dyFdFCHH5ZbFDaVZLo54oj8hAXZkiPyE49snbS4cezhceH8bGl3Pl2FBt2mp1r3CQ+9saxN1jioKIKXTBB1/1yUQhRFfaM1pCxExuwJy2UAMAKXsRAxKzEMq2E1qpWpdNjHO74w08/qiPG56spv7v67frvOiAJRwKRoU+vx7K7BtN/56oy48LCwZJYeN9+fuKh96sJs6dx43My4eLJONWR3JX0/a38/Ih4g3uWASViLZKWvB4WqEYZhxCk8+6P02d58YpuyW80Pl2PZ2NOMzKoqLiUQmBqthhwwmIHVwzfy4SJ40Ln0FS+KdL49uSt0D9vWitbdQ9y3TlftNn1O+Jh0aYr6iL597LyNNUYWBwQObdNgJVawFqYqMiKJhdXF6dnBpN7IVuoPaO13ZpenEUSAkT0K3j0fIyZyTqoc0/2mjJ6jVW/VUExY2SqMrc1zi38r+WJvrNuIFebuH7e/2bIZKRmFBuo367458KdfHvrY14Y+v9v1mViJBMCwGqMmEWvFVmzPO/miE/hdkUKz2tfSHWC1clA61d/8WZWCQIGhBFKKDO80IZAwSImNm435H6Lf/Vf/pWHXuL751Tp3aZEZ8VWRPRLQkXa9J1crWEm1xu6Sjv+yKVuz1jy1ouOxbn8jsTKiclSoiaZtdm7Up7baF5Rai9vn/nn9a2llzzIEJPBOtJnyba3vfFP+biDpv9/ffqZ+eAoqeK3qKuJooBqtm4FZTqXN7fX63HE4i0NFjQiiEjGMEIxwLoMvmieMmjS4KTgM0EggiqQx2nYVRpAJEathUoVaJtXqAjrmN6p/9JXwxUba90j91jvzky5wv1nXToZRwU7avJxud9qe5Bd9Lv232cl8AUaHRopmj7Xv+F/8Z0Nm1+Putm1+7Rx7ZOAEseptbmJihBKlSGRHSdSKNLsEjtS0sfaq47HZO6kkAhETAFOpo3JK5X2Ptpfdod/rS178fvh7shZaxCFGRA3GEGGuf5uDVZZV9pFz/EecqQcTizdf2OtAFKHr7LMZSQ21BWYRkYsa90a5Fy2EAQPuNd3H+w/dmXzjWV6+JjzxWLytnbYWhpMPry1mIWViCKFYTBZLvyLnaCaAwoBUiEhpZFalGpmMRkLCyqlQM8msMGsxb9q7jiYlsAbVupISxdE7A4FzE10gA45WWHjEDwA1RhGIFUZsIBgiA4Xl5LTkvY817rvL/Ggw2X2H/nCJnHOcOd1qEtNAap6rrHuBHh+UrdvxQp06HVRhhaCIDMNIbIht52bm8xK4TMibTNWPTtl4UPFW66r2QUoqBIPK2clFp4T3VtTsSravSVZHpjcaZgNwjMZYlSPC0e+mT9TiJGjrdrqmadqqliCMAEVbs7uya5quAZgl5qxumd4pk/d8JnVgSl2ndumkY+yZ9TBNtLoBT70QH/eUvfYLUUARU3Gz6CgbO1oufyC7qS/uCDYH1Ii1wRbJI3LOHtP7nk+ejEIudszhRSAl5Vf1GXFkX5HkVHvBSfF9Jla8bfxIvvKcrBJSQIZc8xfZtUOVfo2VE/0503leXSd2ysQO6dr7qci0eemp8+ISJc3M0OPxngzBqI8msz7x7HObgYLRMCo1uxYrLUIwsYo3OvlNZcLF5nfmtd+WhvpGt2Yzb1BJnCgQQWCII15QPcbAefar7L0b3XPeNLwIi7MhZYFy20jYFta9wCsz2+oMPdPMHKtEL9soBCBqHdITa6clsdpyu+7WnzyOe3uiO7HyLosKwwBKiPtphoWIo/WkVrjqO3iPGx9Azt4GFhIJ7RXhp4NmUNX0YJrRzv3arnKSkiqJp73h2yh2N51wNKzsmRS/xLMgIIWyRfXj1T89Ij+OY7rTbf1O9qWdulk5V1AXpk+V6UZNv91xbf69YR1UtazC0Rgx0OghQW1Th9boo8annb7WhW5WjQfppOogMlVgYYU6cd2Yckn6h735pKjsmQn2dcvSiFSViYyyFQZqbOw77YfP8O9ndWJbxR4RgQDx5DfIupVY1uTW1Pb0U5L3soGy7PlEBimTQZzj5h/ZXkiQAbPjtva1LdjXvvBRZhiqqDuycmotn1bz9un6w98Kf71Jn29hOOOW53ZAW9tDz+hj1+Vf9dx0sGeE87vMRBY2kfdk/D+QwIHUwJLaTj/hstofz2jPgsS+ysZr/ZX9cauKQv1DuE1U6tJ5Vud5de4cmWSMmuRYEyfzhKXmDOu5zQM/9z8YokEhGCUGFzmX2xS9BJF830ezSCGCG0Y8frlw94BVDYhlmpl/fvLJmlQzhKF0d7GHoFBlYTCrm05zD8+PJeV+2nDV4F9tCs8YbQgNBdNsc9ZEWKuP/kv2+SGzqTOvT4tzptJcRrFTOdLt90ZWRiInlYU4riubnEvzXnPjDrupFmpL+GyLSuEaLITo+zUqiiwQpZDb4RAzEQ+Nqj71cZiGXsLGu/WaH8jXItqp0tvpDB5J27/v7qENBKfqGS1IiOqj5kHyILkA0GA8eQmyt6TFy1rYqO1z61CZRFPfm35ysu+E6nPu2buyq6O0GSah6jvMJZ3a07a773Hf/W77L7fLc0MYlJBTDsqNjXG7WX9V8x8e5bsG3dCUeOgMPpJelrfy4OGtdquPQklZSUkj6DDzto/K567E5ylkQhT4DSloqRDzgIgUWuH6+6q/uWbooWd6VjF5gFhtVNM2jafbywdosErm2HDGVJ5uR+cGUY2gCBjlVDvfW/vQk/7hYbf9meT+7fRCpy56bZcSlYyCDdFkzLnQXv7v8s8NHriffro+e+bIeOJsPZyJ+tzWjXHjuvYjm6rrTHBT4szza79hwDLi3361NkSQwtQfqoddkvzB1/El79uP6x13yeJ3ucufD6vX4blAmJkdfqiba4tKBwTS0Q3AO02O4qUT2rO2J2s2peue8PecZi+EcpHzfYfd+NXml1KTjk4IpwSQpD51Wv/PHf/dFYG4rxMXyUjHScl5T7dX3CJXZdxk8jmLJwuIwBBMFd3vt596RlYLhh6u/WyTf+FIPWUaz5kQega57wVe/SxWbnfrGxQO9Yd+JPn9DpqoRZZg7B8EraSq6MX0o+LJ/bptt+urhI4Z7cWH1g4j5aKEyB5fwmhEmAxJyzZvan/roew2IkvKRfWNFuX9smWjeWE47atJ5zHD71zae56LY/pXRLwR/++p5hPReUK0Yka77YkSobyWu14784PVT3eNSd2z/9suVFcEZq0tTc5d27z/Z/577XTwxqHvHJkefzSdkUjleHfW29uX3Nr+dsuGG9Jvr4j3HJYfc7gcXTNdw2hsDc8+L89sSJ5vcWt6c94l1T+epNOVYd6obu7XzZvvq1JSkIBjwmJYiqTgwsLKYpUjw4plpjPMRctbtzyc3iEUjFqxEAijaHljtX8AKECIJbHRuWiIiRAFRV4DhYoTZ5DMxREfqn/mq9kXh5IdibAKoDQcB1ZlD2WV0N3uPLZyNsONceoSFeVCihRCR7ilc9oLVrrtu3XrY42fz6vNg9qiokEksMJICkSllw3Ie3Z4qqhdaC7f5V+6V340zLtfoBUv2CdcTAgk8INpuwJKY2VW+9iPV35vllnkNFGCMqBRKJJaEwwVEykUhXaIIAoDIkawnJ6cvP8XzZufdHdldvAOf818c8LdreuaaQPQ4+SMKiayJOCg+2dIdyRuhp17NJ+8LaxHjI/EW0+05wqKTE/c4t3L3c2R8tG5IUiZwE4rnfmE36LPK7peqZ1HDiZnA6tq9ttM8EYScA+mXWp///nWiueqK5VUwCMbfwSAU1ROrpx3Wbbpjvx7O+rr1rvVL8rTFakYZz1CbrJCrzA3n3Ox++zxeqYlt6c0BiJFF41TZsiepPSacHJ6/X2PhDtcaCWSvr16fkWrBBIOEFZ1TuxIfR+NyqQQJSQx8Zw/ZR8S+wDBjCSAhAV5ViKtJtS9QJZ8uPO/9GKmhYsKJWUxYohEn7NPr6e13uSEIoXhvqflYQXSyXS4nngh/pOSsBBALqbF/opQVLWBxuwZG9Feqp9e+dhj7fuei8+8lGy9cfjKWZ3Hd7KmWr84/W3N8weym3e6jWvtmnX0/L242UVWjoFbIpHZTM/nfIB/7+32nVWyb0Qv92bxZpsqEyEsht2UeDgFNyObb8gKglEjIBSdnsGw3dR7ecfn28PtfvOSi711niAsUEQOL9ODEiGS8PR83hxakISOpFZVBGhlJB0wGRgoJNWOM/Q9z7aWPxHvI61Mzue6Gg347cO6e7pfOC1LFvSemvg6JWODv7g4HzPQJVNP0XObrd1E7tmhJ0PacmYkVUgqHXNaC1KpTwy9aayOvcYizz6BYYAePuRj9c8tbC25K//+5mTNkDQCRSKw2Ll+iuX6kvzc8+ufnIE5Ferem2MghrRGk2ZmRyRiJssMoyPe7cJZPDLrIuuAyTLxY+kXrmw2m7QraHJ/3+0Daf9cPsJKemb9AkM1qJBGxZgQCiMBartkyrvdZVuG1+RJ3hc2BW11hM4Z/vA0VA+YXYEQQXC+Wg1TdWxFi/2oSffc9tFDZrAXM9Xy6KZHIAER9BCdcWH66evyf+Foe/0hvaaLDBc1MBiJ1QmXJr+9mJb8pPXNF9zKTIfb3FKKVrgiXRPjpLn+qPd2/N48PtZI3YBQVE9Q7ZZJc5uLB5LtE3EIGUcsHCkYmm9OWuiXvtTe1CUTltTPTEInLJSCqumOM+f6RbnVqukGBFpNYj69dViIzUZlN8HYbHSJI8fGV7Uy2c+ZVz3uzMrF08KcCM0Z1hs2ZmI8ZJYsMhBiBqBBFDBjpR8RBqJOMIWmI8khAvYd2jPbL2DxnS5R8hwqyhFmX4LtzAYntFDf9mHz2WubX8s5bA/rnm2tOMGcYSmdbA/7ZPLl47MzbvLf3ox1TTTb1AargbPS0YGOhc1F70l/+6jkxJTqKALg6SCdVr3ZFWtEESlqiDvNFo0BpJN4liGYmAYjdlQvyMUDcbf2SQht2+yl6RWup9FmJk/326QQQENk2YU+HwajqU6RKQlbYTs6obBIbHIj0aQd8mHeHVUS4h7qEQnD6I9qHPkOzLVg88opW3Nkw2GwQZutTKxE1+m6mBJmC2hLs4G4JWhwzBPp8FdJ+xqDMHzONsNgHzb0045GPgDAmVqda9NkVp2nWLg0WrhR/SFmbbQGpD9oqNqeHuqlVyhRpVHamu3GgIlNbzOAbUyUvZG003Qn3EVFDhNNx4yhWhR6ydsim7m/Inkq6Ep6Na8M2N1R/d4VVHHKouUINOdoBWx0WpiH5BX9wS1pDMlmiajypLrtsaPVlQikhWsq5D4M2K2inFE+Sw6nZM9IUZChZfOAbCdt2kEbmn6YmQ1czXT0xFnTdCpMQgRCTGlfI8liY5fsYFVjOiZJj3fkPHljGX536GvyoCUzGbMAa5hIRCjspsGm9EWtT6ZJNSSBrQ2y3mxyMWeKJJXReReaJku0UteOKtUt2YCMmSE1U8hsKDYwOICdRuzoWcvI6LKnB7YpKqKFcVqdgGkGRpD1885cB1tIZsoUtgmQgKIb/dKlLVKJdjCL0vQD3jYVsVvmpMaSWsMmRwgcOeT9um0QO3fT9hYNpaj06KHdOq2HO2syATYC+6rsHJzuqje9DqCGWAQNkJroIFAjygplkI6umKIaoMg4WrU2GiWIERMRTLT7lcwULULDODpAosFIV4Qd3coFghjZO0l9TnkKR5IoxUggJVIhQNkIXi2KR1VBUdQICRDciFeLAC0CcYWiKoT4VXR0XkNRw1LIMJRUhYNCSa2CWA0jCIWcbGWUGCJHBNRqsS+W8N7p1ssIKjb6aEyh1iAxwlAKgDVRwRD2BKYxQwN8US8HwQoRe2hFVJkA4SKB1ggEGdXfDCIQKZpoQgAnmrzSGmJPLipVJWFJx2ojVSPERBZCg6jOwoWUpIhH2ftnLWQVjSQVIRHORImIGNaIbbEYIJEIqBLTqFoGqhqhSqIgiwxIWFg4cFAgiTaSGkWMpIkaKCt5ig6qYiMoEkThgChIrIqSF9jR0ifjjdoYOSflYn2gMDRSnkNGxAHKhWXfd880Jru+jRD2pImSCEUTE+UWq4OQFrsaBgSGajFb3PNYYyQYBZRyE4wSRybSaAJApAI4KWoUkghZKWYLGglkkZAishrlEYEtlA7gpDsoeNNnVQgci3ARZWhO0YkVJoWYfUFeKEwVCcfiL5WV1BBBAshgTJUXVZVAxmiIpFBnkQEOypHH9EVVFdXI3opjYTGZIDEQEshIRL8aZSF+NW2nCDhXtaqGQMTY57VVFSKOLAxWfbW6niIRLByNRlZXSFWpkFcLK0TBQgpEN6q/RUSKhkZ0Onsr3eyNFxw9fxQUJefUWPFCFNinvhpcYNWRRFeK/aN6RCk1qEkAAAIpSURBVCJFqEZihmWAo0TrATI6NnB39LlISawiCnvrK/oq7g6NgWCiKXYpxlbqkQgVqAs2N97BkQqK6hZjQ6CCSiFwIiWoKqmSUhGIjLYgURYCRK0ddRUBYM0Bw0ViZA5BE4u80CMYtZGFNTAIypEtaxTECOfgCVaVhUXBRlWL2PaxKcg9yCizEiEqCymkyMMuJjKx0ki1byly5h3gMY6UnKcITQhg0WjUaA5JxRRFHyyxKJTVjXnAEZ5BCEasmDa0Ekkd2qROYffUffcjvlSQ0RFRoxR14QmFGVUqlGcE3T/x5EHCmz6rKil5ZYrWeBD7dkveMkpTVVJSMg44iCSgJSUlJa9EaapKSkrGAaWpKikpGQeUpqqkpGQcUJqqkpKScUBpqkpKSsYBpakqKSkZB5SmqqSkZBxQmqqSkpJxQGmqSkpKxgGlqSopKRkHlKaqpKRkHFCaqpKSknFAaapKSkrGAaWpKikpGQeUpqqkpGQcUJqqkpKScUBpqkpKSsYBpakqKSkZB5SmqqSkZBxQmqqSkpJxQGmqSkpKxgGlqSopKRkHlKaqpKRkHFCaqpKSknFAaapKSkrGAaWpKikpGQeUpqqkpGQcUJqqkpKScUBpqkpKSsYBpakqKSkZB5SmqqSkZBxQmqqSkpJxQGmqSkpKxgGlqSopKRkHlKaqpKRkHFCaqpKSknFAaapKSkrGAaWpKikpGQeUpqqkpGQcUJqqkpKSccD/B/58llLytmwAAAAAAElFTkSuQmCC;imageBorder=default;strokeWidth=3;" vertex="1" parent="7">
                    <mxGeometry x="420" y="90" width="294.17" height="170" as="geometry"/>
                </mxCell>
                <mxCell id="13" value="&lt;div style=&quot;font-family: Consolas, &amp;quot;Courier New&amp;quot;, monospace; font-size: 14px; line-height: 19px; white-space-collapse: preserve;&quot;&gt;&lt;div style=&quot;&quot;&gt;&lt;span&gt;&lt;span style=&quot;color: rgb(212, 212, 212);&quot;&gt;  &lt;/span&gt;&lt;font style=&quot;color: rgb(0, 0, 0);&quot;&gt;&#39;Step 1: &#39; + userNumber + &#39; / 2 = &#39; + step1 &lt;/font&gt;&lt;/span&gt;&lt;/div&gt;&lt;div style=&quot;&quot;&gt;&lt;span&gt;&lt;font style=&quot;color: rgb(0, 0, 0);&quot;&gt;  &#39;Step 2: &#39; + userNumber + &#39; + 1 = &#39; + step2 &lt;/font&gt;&lt;/span&gt;&lt;/div&gt;&lt;div style=&quot;&quot;&gt;&lt;span&gt;&lt;font style=&quot;color: rgb(0, 0, 0);&quot;&gt;  &#39;Step 3: &#39; + step1 + &#39; * &#39; + step2 + &#39; = &#39; + answer + &lt;/font&gt;&lt;/span&gt;&lt;/div&gt;&lt;div style=&quot;&quot;&gt;&lt;span&gt;&lt;font style=&quot;color: rgb(0, 0, 0);&quot;&gt;  &#39;Your answer is &#39; + answer + &#39;.&#39;&lt;/font&gt;&lt;/span&gt;&lt;/div&gt;&lt;/div&gt;" style="text;html=1;align=left;verticalAlign=middle;resizable=0;points=[];autosize=1;strokeColor=none;fillColor=none;" vertex="1" parent="7">
                    <mxGeometry x="10" y="290" width="470" height="90" as="geometry"/>
                </mxCell>
            </root>
        </mxGraphModel>
    </diagram>
</mxfile>